<?xml version="1.0" encoding="UTF-8" standalone="no"?>
<svg
   xmlns:svg="http://www.w3.org/2000/svg"
   xmlns="http://www.w3.org/2000/svg"
   width="800.0"
   height="240.0"

>
    <g transform="scale(6.940306165256119, -6.940306165256119)   translate(39.19961442478116,-5.079190594795621)" stroke-width="0.14408586252377484"  fill="none">
       <!-- hidden lines -->
       <g  stroke="rgb(160,160,160)" fill="none" stroke-dasharray="0.14408586252377484,0.14408586252377484" >
			<path d="M-8.338231419633809,1.4586674826033217 L-8.338231419633809,-20.081841083035894 " />
			<path d="M-10.382441920026192,-22.279314427356017 L-8.338231419633809,-20.081841083035894 " />
			<path d="M2.0442105003923787,2.197473344320125 L2.0442105003923787,-19.34303522131909 " />
			<path d="M-8.338231419633809,-20.081841083035894 L2.0442105003923796,-19.34303522131909 " />
			<path d="M2.0442105003923787,-19.34303522131909 L10.382441920026192,-20.801702703922416 " />

       </g>

       <!-- solid lines -->
       <g  stroke="rgb(0,0,0)" fill="none">
			<path d="M10.382441920026192,0.7388058617168017 L10.382441920026192,-20.801702703922412 " />
			<path d="M8.338231419633805,-1.4586674826033224 L8.338231419633805,-22.999176048242536 " />
			<path d="M10.382441920026192,0.7388058617168017 L8.338231419633804,-1.4586674826033237 " />
			<path d="M10.382441920026192,-20.801702703922412 L8.338231419633804,-22.99917604824254 " />
			<path d="M-2.0442105003923845,-2.1974733443201244 L-2.0442105003923845,-23.737981909959338 " />
			<path d="M8.338231419633805,-1.4586674826033224 L-2.044210500392385,-2.197473344320124 " />
			<path d="M8.338231419633805,-22.99917604824254 L-2.044210500392385,-23.73798190995934 " />
			<path d="M-10.382441920026192,-0.738805861716802 L-10.382441920026192,-22.279314427356017 " />
			<path d="M-2.0442105003923845,-2.1974733443201244 L-10.382441920026194,-0.7388058617168016 " />
			<path d="M-2.0442105003923845,-23.737981909959338 L-10.382441920026194,-22.279314427356013 " />
			<path d="M-10.382441920026192,-0.738805861716802 L-8.338231419633809,1.4586674826033224 " />
			<path d="M-8.338231419633809,1.4586674826033217 L2.0442105003923796,2.197473344320125 " />
			<path d="M2.0442105003923787,2.197473344320125 L10.382441920026192,0.7388058617168016 " />

       </g>
    </g>
    <g transform="translate(20,210.0)" stroke="rgb(0,0,255)">
        <line x1="30" y1="-30" x2="75" y2="-33" stroke-width="3" stroke="#000000" />
         <text x="80" y="-30" style="stroke:#000000">X </text>

        <line x1="30" y1="-30" x2="30" y2="-75" stroke-width="3" stroke="#000000" />
         <text x="25" y="-85" style="stroke:#000000">Y </text>

        <line x1="30" y1="-30" x2="58" y2="-15" stroke-width="3" stroke="#000000" />
         <text x="65" y="-5" style="stroke:#000000">Z </text>
        <!--
            <line x1="0" y1="0" x2="6.940306165256119" y2="0" stroke-width="3" />
            <text x="0" y="20" style="stroke:#000000">1  mm </text>
        -->
    </g>
</svg>
