<?xml version="1.0" encoding="UTF-8" standalone="no"?>
<svg
   xmlns:svg="http://www.w3.org/2000/svg"
   xmlns="http://www.w3.org/2000/svg"
   width="800.0"
   height="240.0"

>
    <g transform="scale(3.0391762892243834, -3.0391762892243834)   translate(75.79997929384002,-41.45998653655463)" stroke-width="0.32903652333218425"  fill="none">
       <!-- hidden lines -->
       <g  stroke="rgb(160,160,160)" fill="none" stroke-dasharray="0.32903652333218425,0.32903652333218425" >
			<path d="M20.339005753065006,34.87767101286357 L20.28890565382718,34.87207952353798 L20.23912625237886,34.862459403580615 L20.18970108837474,34.84881713469864 L20.140663462796464,34.83116190858527 L20.092046415515565,34.8095056207268 L20.043882703032335,34.78386286238781 L19.996204776405612,34.754250910780044 L19.949044759388375,34.720689717421656 L19.90243442678386,34.68320189469456 L19.856405183036774,34.64181270060895 L19.810988041074083,34.59655002178533 L19.766213601409532,34.5474443546655 L19.72211203152609,34.49452878496504 L19.678713045550136,34.43783896538133 L19.636045884231073,34.37741309157199 L19.59413929523995,34.313291876419896 L19.55302151380023,34.245518522602325 L19.51272024366389,34.17413869348239 L19.473262638445576,34.09920048234268 L19.43467528332742,34.02075437998164 L19.396984177146866,33.93885324069458 L19.360214714879532,33.853552246662304 L19.324391670528964,33.76490887077122 L19.289539180434737,33.67298283789008 L19.22283912292103,33.47953271761079 L19.16029427291067,33.273723158250824 L19.10207316431656,33.05610873609181 L19.048332680259275,32.82727583690436 " />
			<path d="M29.201334006074298,-22.868121349401243 L29.14878437307609,-22.869657155611115 L29.095961211820224,-22.866806877144107 L29.042903224492687,-22.859572602326715 L28.989649285330565,-22.847959631528 L28.93623841213985,-22.831976473276136 L28.882709737708122,-22.811634838024425 L28.829102481132917,-22.78694962957136 L28.775455919086916,-22.75793893414098 " />
			<path d="M11.03776060122474,-3.642243099595242 L19.04833268025927,32.82727583690436 " />
			<path d="M28.775455919086916,-22.757938934140974 L12.754311761017853,-13.45139864742676 " />
			<path d="M12.754311761017853,-13.451398647426762 L12.689459183576526,-13.410580981965353 L12.624676051899502,-13.36351626614531 L12.560031737386824,-13.31025489804318 L12.495595462789634,-13.250853911265972 L12.431436228084722,-13.185376913878166 L12.367622736587627,-13.11389402028858 L12.304223321383395,-13.036481776170124 L12.24130587215381,-12.953223076492762 L12.178937762479416,-12.864207076757516 L12.117185777694203,-12.769529097526508 L12.056116043370201,-12.669290522351321 L11.995793954508551,-12.563598689208959 L11.936284105512911,-12.452566775561642 L11.877650221020144,-12.336313677163545 L11.819955087662382,-12.214963880744262 L11.763260486833534,-12.088647330705275 L11.70762712853221,-11.957499289972255 L11.65311458635194,-11.821660195152113 L11.599781233688287,-11.681275506149984 L11.547684181231133,-11.536495550407103 L11.496879215809141,-11.387475361926427 L11.44742074065181,-11.234374515258324 L11.399361717133136,-11.077356954624165 L11.35275360805925,-10.916590818360742 L11.307646322560759,-10.752248258873514 L11.264088162648784,-10.584505258291514 L11.222125771491974,-10.413541440021271 L11.181804083469823,-10.239539876401563 L11.143166276055812,-10.06268689266498 L11.106253723581894,-9.883171867416188 L11.071105952933813,-9.701187029840586 L11.037760601224736,-9.516927253860475 L11.006253375492486,-9.330589849459177 L10.976618014463543,-9.142374351396567 L10.948886252424785,-8.952482305542258 L10.923087785241604,-8.761117053055223 L10.899250238558844,-8.568483512641006 L10.877399138218559,-8.374787961119624 L10.8575578829263,-8.180237812539193 L10.839747719195207,-7.985041396071762 L10.823987718594697,-7.78940773292922 L10.810294757328158,-7.593546312538152 L10.798683498161488,-7.397666868213301 L10.78916637472183,-7.201979152569901 L10.781753578183343,-7.006692712915304 L10.77645304635423,-6.812016666860481 L10.773270455176737,-6.618159478391655 L10.772209212649214,-6.425328734641829 L10.773270455176737,-6.2337309236012945 L10.77645304635423,-6.043571213005116 L10.781753578183343,-5.855053230634378 L10.78916637472183,-5.668378846266469 L10.798683498161488,-5.48374795550785 L10.81029475732816,-5.301358265740845 L10.823987718594697,-5.121405084413622 L10.839747719195207,-4.944081109900082 L10.8575578829263,-4.769576225153614 L10.877399138218557,-4.598077294375674 L10.899250238558844,-4.4297679629169195 L10.923087785241604,-4.264828460625166 L10.948886252424785,-4.103435408850752 L10.976618014463543,-3.9457616313159747 L11.006253375492486,-3.7919759690511134 L11.037760601224733,-3.6422430995952513 " />

       </g>

       <!-- solid lines -->
       <g  stroke="rgb(0,0,0)" fill="none">
			<path d="M1.7165511597931131,29.35540548060341 L9.727123238827646,-16.420653742610398 " />
			<path d="M22.481434999845497,30.833017204037013 L30.49200707888003,-14.943042019176794 " />
			<path d="M1.7165511597931162,29.355405480603416 L1.6760841999883733,29.57749100076074 L1.6330035127654938,29.796204579160655 L1.5873762792203832,30.011205148405363 L1.5392736515966627,30.22215743125597 L1.4887706423290954,30.428732463472112 L1.4359460070673213,30.630608106807035 L1.380882121862338,30.827469551357968 L1.3236648547072387,31.019009806488523 L1.2643834316325278,31.20493017955753 L1.2031302975648266,31.38494074170778 L1.1400009721659503,31.55876077998831 L1.0750939008771738,31.726119235105166 L1.008510301400962,31.886755124117983 L0.9403540058595621,32.04041794742331 L0.8707312988766079,32.1868680793899 L0.7997507518342359,32.32587714203694 L0.7275230535641628,32.45722836117226 L0.6541608377367719,32.580716904435526 L0.5797785072173645,32.6961502007188 L0.504492055663482,32.803348240466796 L0.42841888664150946,32.90214385638824 L0.35167763054463463,32.99238298414071 L0.2743879595976548,33.0739249025824 L0.1966704012371338,33.146642453216145 L0.11864615015792168,33.21042223848361 L0.04043687931912743,33.2651647986002 L-0.037835449795725395,33.310784766655175 L-0.0769571161497426,33.330150988235076 L-0.11604877736846814,33.34721100173488 L-0.15509519183887988,33.36195815555381 L-0.19408113558940177,33.37438669986172 L-0.23299140822564227,33.38449178884095 L-0.2718108388569388,33.39226948257564 L-0.31052429201140536,33.39771674858791 L-0.3491166735371624,33.40083146302019 L-0.3875729364874561,33.40161241146331 L-0.42587808698736357,33.40005928942997 " />
			<path d="M-0.4258780869873812,33.40005928942997 L-0.4759781862252077,33.39446780010437 L-0.5257575876735271,33.38484768014701 L-0.5751827516776463,33.37120541126504 L-0.6242203772559217,33.35355018515167 L-0.67283742453682,33.3318938972932 L-0.7210011370200506,33.3062511389542 L-0.7686790636467735,33.27663918734644 L-0.81583908066401,33.24307799398805 L-0.8624494132685271,33.20559017126096 L-0.9084786570156106,33.16420097717534 L-0.9538957989783038,33.11893829835173 L-0.998670238642855,33.0698326312319 L-1.0427718085262945,33.01691706153144 L-1.086170794502251,32.96022724194773 L-1.128837955821312,32.899801368138384 L-1.1707445448124376,32.83568015298629 L-1.2118623262521577,32.76790679916872 L-1.2521635963884963,32.69652697004879 L-1.2916212016068103,32.62158875890908 L-1.3302085567249657,32.543142656548035 L-1.367899662905521,32.46124151726097 L-1.4046691251728536,32.3759405232287 L-1.4404921695234232,32.28729714733761 L-1.4753446596176476,32.19537111445648 L-1.5420447171313538,32.00192099417718 L-1.6045895671417159,31.796111434817224 L-1.6628106757358256,31.578497012658204 L-1.716551159793111,31.34966411347076 " />
			<path d="M9.727123238827648,-16.420653742610387 L9.782292624950784,-16.756141326438375 L9.83136257025415,-17.097153441926213 L9.874164143340465,-17.442516098501834 L9.910549992719886,-17.791040328136393 L9.940394854091851,-18.14152627856323 L9.963595981588155,-18.4927673439676 L9.98007350149257,-18.843554318926657 L9.989770687219325,-19.192679561298952 L9.992654154603747,-19.538941149732135 L9.988713976832768,-19.88114702147586 L9.977963718619622,-20.218119076254837 L9.96044038950507,-20.548697232073753 L9.936204316445954,-20.87174341899129 L9.905338936129656,-21.186145497113998 L9.867950507729534,-21.4908210853217 L9.82416774709013,-21.784721287543412 L9.799924748889403,-21.92731288616524 L9.774141383601622,-22.06683430375542 L9.746839846877732,-22.203165433080095 L9.718043641288972,-22.336188913270107 L9.687777556094648,-22.46579023085131 L9.656067645902258,-22.591857818323696 L9.62294120823834,-22.71428315020439 L9.588426760049359,-22.832960836452067 L9.552554013152838,-22.947788713192068 L9.515353848659906,-23.058667930664377 L9.476858290391235,-23.16550303831858 L9.437100477309283,-23.268202066982603 L9.396114634990575,-23.366676608034563 L9.353936046162547,-23.460841889509428 L9.310601020330363,-23.55061684907512 L9.266146862519825,-23.635924203815147 L9.220611841163267,-23.71669051675773 L9.174035155156126,-23.792846260094123 L9.126456900112508,-23.86432587503176 L9.077918033848817,-23.931067828230617 L9.028460341125145,-23.993014664774307 L8.978126397674806,-24.050113057630227 L8.92695953355294,-24.102313853556232 L8.875003795835772,-24.14957211541426 L8.822303910702612,-24.191847160854547 L8.76890524493326,-24.229102597337103 L8.71485376685393,-24.261306353460274 L8.660196006765352,-24.28843070656947 L8.604979016887084,-24.310452306622246 L8.54925033085254,-24.32735219628923 L8.493057922789582,-24.339115827273567 L8.436450166021935,-24.345733072834847 " />
			<path d="M8.436450166021917,-24.345733072834847 L8.38390053302371,-24.34726887904472 L8.331077371767842,-24.34441860057771 L8.278019384440306,-24.33718432576032 L8.22476544527818,-24.325571354961603 L8.171354572087468,-24.30958819670974 L8.11782589765574,-24.28924656145803 L8.064218641080535,-24.264561353004964 L8.010572079034533,-24.235550657574585 " />
			<path d="M-9.727123238827645,-5.119854823028846 L-1.7165511597931111,31.349664113470755 " />
			<path d="M8.010572079034535,-24.235550657574578 L-8.01057207903453,-14.929010370860365 " />
			<path d="M-8.010572079034532,-14.929010370860368 L-8.075424656475858,-14.888192705398957 L-8.140207788152882,-14.841127989578915 L-8.20485210266556,-14.787866621476784 L-8.26928837726275,-14.728465634699578 L-8.333447611967662,-14.66298863731177 L-8.397261103464757,-14.591505743722186 L-8.46066051866899,-14.514093499603728 L-8.523577967898575,-14.430834799926368 L-8.585946077572968,-14.34181880019112 L-8.647698062358181,-14.247140820960112 L-8.708767796682183,-14.146902245784927 L-8.769089885543833,-14.041210412642563 L-8.828599734539473,-13.930178498995247 L-8.88723361903224,-13.813925400597151 L-8.944928752390002,-13.692575604177868 L-9.00162335321885,-13.56625905413888 L-9.057256711520175,-13.435111013405859 L-9.111769253700444,-13.299271918585717 L-9.165102606364098,-13.158887229583588 L-9.21719965882125,-13.01410727384071 L-9.268004624243243,-12.865087085360031 L-9.317463099400575,-12.711986238691928 L-9.365522122919248,-12.55496867805777 L-9.412130231993133,-12.394202541794346 L-9.457237517491626,-12.22985998230712 L-9.5007956774036,-12.06211698172512 L-9.54275806856041,-11.891153163454877 L-9.583079756582562,-11.71715159983517 L-9.621717563996572,-11.540298616098585 L-9.65863011647049,-11.360783590849794 L-9.693777887118571,-11.178798753274192 L-9.727123238827648,-10.99453897729408 L-9.758630464559898,-10.808201572892782 L-9.78826582558884,-10.619986074830173 L-9.8159975876276,-10.430094028975862 L-9.84179605481078,-10.238728776488829 L-9.86563360149354,-10.04609523607461 L-9.887484701833825,-9.85239968455323 L-9.907325957126083,-9.6578495359728 L-9.925136120857177,-9.462653119505367 L-9.940896121457687,-9.267019456362826 L-9.954589082724226,-9.071158035971756 L-9.966200341890897,-8.875278591646907 L-9.975717465330554,-8.679590876003507 L-9.983130261869041,-8.484304436348909 L-9.988430793698154,-8.289628390294085 L-9.991613384875647,-8.09577120182526 L-9.99267462740317,-7.9029404580754345 L-9.991613384875647,-7.7113426470349 L-9.988430793698154,-7.52118293643872 L-9.983130261869041,-7.332664954067983 L-9.975717465330554,-7.145990569700074 L-9.966200341890897,-6.961359678941456 L-9.954589082724224,-6.778969989174451 L-9.940896121457687,-6.599016807847226 L-9.925136120857177,-6.421692833333687 L-9.907325957126083,-6.247187948587219 L-9.887484701833827,-6.075689017809279 L-9.86563360149354,-5.907379686350524 L-9.84179605481078,-5.742440184058771 L-9.8159975876276,-5.581047132284357 L-9.78826582558884,-5.42337335474958 L-9.758630464559898,-5.269587692484718 L-9.727123238827652,-5.119854823028856 " />
			<path d="M22.4814349998455,30.83301720403702 L22.440968040040758,31.055102724194345 L22.39788735281788,31.27381630259426 L22.35226011927277,31.488816871838967 L22.30415749164905,31.699769154689573 L22.25365448238148,31.906344186905716 L22.200829847119707,32.10821983024064 L22.145765961914723,32.30508127479157 L22.088548694759623,32.49662152992212 L22.029267271684915,32.68254190299113 L21.968014137617214,32.862552465141384 L21.904884812218334,33.036372503421916 L21.83997774092956,33.20373095853877 L21.77339414145335,33.36436684755159 L21.70523784591195,33.518029670856905 L21.635615138928994,33.66447980282351 L21.564634591886623,33.80348886547054 L21.492406893616547,33.93484008460587 L21.41904467778916,34.05832862786913 L21.34466234726975,34.1737619241524 L21.269375895715868,34.2809599639004 L21.193302726693894,34.37975557982185 L21.11656147059702,34.469994707574315 L21.03927179965004,34.551536626016 L20.96155424128952,34.62425417664975 L20.883529990210306,34.68803396191721 L20.80532071937151,34.74277652203381 L20.72704839025666,34.78839649008877 L20.687926723902642,34.80776271166868 L20.64883506268392,34.82482272516848 L20.609788648213506,34.839569878987405 L20.570802704462984,34.85199842329532 L20.531892431826744,34.86210351227455 L20.493073001195448,34.86988120600925 L20.45435954804098,34.875328472021515 L20.415767166515224,34.878443186453794 L20.37731090356493,34.879224134896916 L20.339005753065024,34.87767101286357 " />
			<path d="M30.49200707888003,-14.943042019176785 L30.54717646500317,-15.278529603004772 L30.596246410306534,-15.619541718492611 L30.63904798339285,-15.964904375068228 L30.675433832772267,-16.31342860470279 L30.705278694144233,-16.663914555129626 L30.728479821640537,-17.015155620533996 L30.744957341544954,-17.365942595493053 L30.754654527271708,-17.715067837865348 L30.75753799465613,-18.06132942629853 L30.75359781688515,-18.403535298042257 L30.742847558672004,-18.740507352821233 L30.725324229557454,-19.07108550864015 L30.701088156498336,-19.394131695557686 L30.67022277618204,-19.708533773680394 L30.632834347781916,-20.013209361888094 L30.589051587142514,-20.30710956410981 L30.564808588941787,-20.449701162731635 L30.539025223654004,-20.589222580321817 L30.511723686930114,-20.72555370964649 L30.482927481341356,-20.858577189836502 L30.452661396147032,-20.988178507417707 L30.42095148595464,-21.114246094890092 L30.387825048290722,-21.236671426770787 L30.35331060010174,-21.355349113018463 L30.31743785320522,-21.470176989758464 L30.280237688712287,-21.581056207230773 L30.241742130443615,-21.687891314884975 L30.201984317361667,-21.790590343549 L30.16099847504296,-21.88906488460096 L30.11881988621493,-21.983230166075824 L30.075484860382744,-22.073005125641515 L30.031030702572206,-22.158312480381543 L29.98549568121565,-22.239078793324126 L29.938918995208507,-22.31523453666052 L29.891340740164893,-22.386714151598156 L29.842801873901198,-22.453456104797013 L29.793344181177527,-22.515402941340703 L29.743010237727187,-22.572501334196623 L29.691843373605323,-22.62470213012263 L29.639887635888154,-22.671960391980654 L29.587187750754996,-22.714235437420943 L29.533789084985642,-22.7514908739035 L29.479737606906312,-22.78369463002667 L29.425079846817734,-22.810818983135867 L29.369862856939466,-22.83284058318864 L29.31413417090492,-22.849740472855625 L29.257941762841966,-22.861504103839962 L29.201334006074315,-22.868121349401243 " />
			<path d="M1.7165511597931158,29.355405480603416 L22.4814349998455,30.83301720403702 " />
			<path d="M9.727123238827648,-16.42065374261039 L30.492007078880032,-14.943042019176787 " />
			<path d="M-0.42587808698738117,33.40005928942996 L20.339005753065003,34.877671012863566 " />
			<path d="M8.436450166021917,-24.345733072834843 L29.2013340060743,-22.86812134940124 " />

       </g>
    </g>
    <g transform="translate(20,210.0)" stroke="rgb(0,0,255)">
        <line x1="30" y1="-30" x2="75" y2="-33" stroke-width="3" stroke="#000000" />
         <text x="80" y="-30" style="stroke:#000000">X </text>

        <line x1="30" y1="-30" x2="30" y2="-75" stroke-width="3" stroke="#000000" />
         <text x="25" y="-85" style="stroke:#000000">Y </text>

        <line x1="30" y1="-30" x2="58" y2="-15" stroke-width="3" stroke="#000000" />
         <text x="65" y="-5" style="stroke:#000000">Z </text>
        <!--
            <line x1="0" y1="0" x2="3.0391762892243834" y2="0" stroke-width="3" />
            <text x="0" y="20" style="stroke:#000000">1  mm </text>
        -->
    </g>
</svg>
