<?xml version="1.0" encoding="UTF-8" standalone="no"?>
<svg
   xmlns:svg="http://www.w3.org/2000/svg"
   xmlns="http://www.w3.org/2000/svg"
   width="800.0"
   height="240.0"

>
    <g transform="scale(3.443822800568074, -3.443822800568074)   translate(83.07499734510414,-10.890296987023502)" stroke-width="0.2903749867255207"  fill="none">
       <!-- hidden lines -->
       <g  stroke="rgb(160,160,160)" fill="none" stroke-dasharray="0.2903749867255207,0.2903749867255207" >
			<path d="M-25.0,-42.10190310556755 L-24.998117545978612,-42.039529364484785 L-24.992470467405106,-41.977165016658 L-24.98305961470874,-41.91481945392858 L-24.96988640512931,-41.85250206530895 L-24.95295282250373,-41.790222235568606 L-24.932261416967254,-41.72798934382084 L-24.90781530456945,-41.66581276211023 L-24.879618166804924,-41.60370185400127 L-24.8476742500589,-41.54166597316827 L-24.81198836496775,-41.4797144619867 L-24.7725658856945,-41.41785665012627 L-24.729412749119525,-41.356101853145894 L-24.68253545394646,-41.29445937109087 L-24.63194105972353,-41.23293848709224 L-24.577637185780407,-41.171548465968854 L-24.519632010080763,-41.110298552832084 L-24.45793426799069,-41.04919797169354 L-24.392553250963214,-40.988255924076 L-24.323498805139003,-40.92748158762768 L-24.2507813298636,-40.86688411474011 L-24.174411776121303,-40.80647263116979 L-24.094401644885995,-40.746256234663946 L-24.010762985389146,-40.6862439935904 L-23.92350839330522,-40.62644494557192 L-23.832651008854846,-40.56686809612517 L-23.738204514825917,-40.50752241730454 L-23.64018313451303,-40.44841684635097 L-23.53860162957552,-40.38956028434604 L-23.324819970868475,-40.272629602674414 L-23.09698831278217,-40.15680080695999 L-22.855243892588266,-40.042143668138195 L-22.599732328086084,-39.928727251382135 L-22.33060752988788,-39.81661987450036 L-22.048031608708875,-39.705889066784735 L-21.752174777717787,-39.59660152833334 L-21.4432152500068,-39.4888230898728 L-21.121339131242678,-39.382618673104375 L-20.78674030756363,-39.27805225159746 L-20.439620328789594,-39.175186812254395 L-20.080188287016124,-39.074084317369454 L-19.708660690665155,-38.974805667305084 L-19.325261334068426,-38.87741066380782 L-18.930221162662114,-38.78195797398593 L-18.523778133873982,-38.688505094970566 L-18.106177073786675,-38.59710831928161 L-17.67766952966369,-38.50782270091919 L-17.238513618426673,-38.42070202220122 L-16.788973871175457,-38.33579876136689 L-16.329321073844422,-38.25316406096579 L-15.859832104091137,-38.17284769705154 L-15.38078976451567,-38.09489804919853 L-14.892482612310836,-38.01936207135991 L-14.395204785446133,-37.94628526358426 L-13.889255825490057,-37.87571164460805 L-13.374940497177429,-37.80768372534045 L-12.852568604830541,-37.7422424832563 L-12.322454805744602,-37.679427337712816 L-11.784918420649944,-37.619276126204866 L-11.240283241365171,-37.56182508157306 L-10.688877335757056,-37.507108810178465 L-10.131032850124747,-37.45516027105698 L-9.567085809127246,-37.40601075606611 L-8.997375913374707,-37.35968987103585 L-8.422246334805502,-37.31622551793529 L-7.842043509972283,-37.275643878065516 L-7.257116931361558,-37.237969396288925 L-6.667818936872461,-37.203224766304615 L-6.074504497581599,-37.171430916978494 L-5.47753100392175,-37.14260699973655 L-4.877258050403208,-37.116770377028736 L-4.274047219007528,-37.09393661187047 L-3.668261861384044,-37.074119458468076 L-3.060266879980407,-37.05733085393376 L-2.4504285082390194,-37.04358091109512 L-1.8391140899916918,-37.032877912403585 L-1.2266918581854531,-37.025228304945344 L-0.6135307130728067,-37.0206366965579 L-1.6028511618807322e-15,-37.01910585305446 L0.6135307130728035,-37.0206366965579 L1.2266918581854502,-37.025228304945344 L1.8391140899916887,-37.032877912403585 L2.4504285082390163,-37.04358091109512 L3.060266879980404,-37.05733085393376 L3.6682618613840408,-37.074119458468076 L4.274047219007525,-37.09393661187047 L4.877258050403205,-37.116770377028736 L5.477531003921746,-37.14260699973655 L6.0745044975815965,-37.171430916978494 L6.667818936872457,-37.203224766304615 L7.257116931361554,-37.237969396288925 L7.842043509972281,-37.27564387806551 L8.422246334805498,-37.31622551793529 L8.997375913374704,-37.35968987103585 L9.567085809127244,-37.40601075606611 L10.131032850124749,-37.45516027105698 L10.688877335757056,-37.507108810178465 L11.240283241365168,-37.56182508157306 L11.784918420649943,-37.619276126204866 L12.3224548057446,-37.67942733771281 L12.85256860483054,-37.7422424832563 L13.374940497177427,-37.80768372534045 L13.889255825490048,-37.87571164460805 L14.395204785446126,-37.94628526358425 L14.892482612310824,-38.01936207135991 L15.38078976451566,-38.09489804919853 L15.859832104091135,-38.17284769705154 L16.329321073844422,-38.25316406096579 L16.78897387117546,-38.33579876136689 L17.238513618426673,-38.42070202220122 L17.677669529663685,-38.50782270091919 L18.106177073786668,-38.59710831928161 L18.52377813387397,-38.688505094970566 L18.930221162662107,-38.78195797398593 L19.325261334068426,-38.87741066380782 L19.708660690665162,-38.974805667305084 L20.080188287016128,-39.074084317369454 L20.439620328789594,-39.175186812254395 L20.786740307563633,-39.27805225159746 L21.121339131242678,-39.382618673104375 L21.4432152500068,-39.4888230898728 L21.752174777717784,-39.59660152833334 L22.048031608708875,-39.705889066784735 L22.33060752988788,-39.81661987450036 L22.599732328086077,-39.928727251382135 L22.855243892588263,-40.042143668138195 L23.09698831278217,-40.15680080695999 L23.324819970868475,-40.272629602674414 L23.53860162957552,-40.38956028434604 L23.640183134513034,-40.44841684635097 L23.738204514825917,-40.50752241730454 L23.832651008854846,-40.56686809612517 L23.92350839330522,-40.62644494557192 L24.010762985389146,-40.6862439935904 L24.094401644885995,-40.746256234663946 L24.174411776121303,-40.80647263116979 L24.2507813298636,-40.8668841147401 L24.323498805139003,-40.92748158762768 L24.39255325096321,-40.988255924076 L24.457934267990687,-41.04919797169354 L24.519632010080763,-41.11029855283208 L24.577637185780407,-41.171548465968854 L24.63194105972353,-41.23293848709224 L24.682535453946457,-41.294459371090866 L24.729412749119522,-41.356101853145894 L24.772565885694497,-41.41785665012626 L24.81198836496775,-41.4797144619867 L24.8476742500589,-41.54166597316827 L24.87961816680492,-41.60370185400127 L24.90781530456945,-41.66581276211022 L24.932261416967254,-41.72798934382084 L24.95295282250373,-41.790222235568606 L24.96988640512931,-41.85250206530895 L24.98305961470874,-41.91481945392857 L24.992470467405106,-41.977165016658 L24.998117545978612,-42.039529364484785 L25.0,-42.10190310556753 " />
			<path d="M-2.6428033978248466,-40.56672209420797 L-2.8132494939866888,-40.57770317903235 L-2.986610476679875,-40.58660032863185 L-3.1622705472145465,-40.59338193928007 L-3.3396057402692474,-40.59802392189486 L-3.517986140289443,-40.60050978760562 L-3.6967781190219857,-40.60083070632367 L-3.875346586237522,-40.59898553810783 L-4.05305724564601,-40.59498083721357 L-4.229278847992073,-40.588830828811545 L-4.403385433326921,-40.5805573584581 L-4.574758554492043,-40.57018981449729 L-4.7427894739165595,-40.55776502367 L-4.906881325924996,-40.543327120300994 L-5.066451236874665,-40.52692738952861 L-5.220932395591701,-40.50862408513386 L-5.36977606675131,-40.488482222616156 L-5.5124535400504655,-40.466573348250535 L-5.6484580082493565,-40.44297528494686 L-5.777306367410585,-40.41777185581366 L-5.8985409329414065,-40.39105258640853 L-6.011731065343483,-40.36291238673275 L-6.116474699895245,-40.33345121409983 L-6.212399774833283,-40.30277371807522 L-6.29916555295968,-40.27098886874879 L-6.376463831980794,-40.2382095696601 L-6.444020039278209,-40.20455225675179 L-6.501594207223115,-40.17013648477528 L-6.54898182556967,-40.13508450261819 L-6.586014567899555,-40.099520819061894 L-6.600605302382558,-40.081586507492425 L-6.612560889537297,-40.06357176051155 L-6.621870710091221,-40.04549257929978 L-6.6285264948124905,-40.027365022269834 L-6.632522331854949,-40.00920519080314 L-6.633854672009164,-39.99102921494813 " />
			<path d="M-6.633854672009164,-39.99102921494812 L-6.630241040624681,-39.96110109011709 L-6.619408852025755,-39.93124506476017 L-6.601384201903507,-39.90153306465752 L-6.5762105132188555,-39.87203666861986 L-6.543948431592796,-39.84282693604883 L-6.504675679205791,-39.813974235748645 L-6.458486867558227,-39.78554807640154 L-6.405493269543024,-39.757616939115216 L-6.345822551379494,-39.73024811244587 L-6.279618465054229,-39.70350753029418 L-6.20704050200998,-39.67745961306475 L-6.1282635089168,-39.65216711247171 L-6.043477266451099,-39.62769096036435 L-5.952886032097375,-39.604090121936956 L-5.856708048074042,-39.581421453676484 L-5.755175015568807,-39.55973956639032 L-5.5370345245001005,-39.5195425659262 L-5.300565371067972,-39.48388623963298 L-5.048044882487158,-39.4531139774246 L-4.781904969104434,-39.42752213300795 L-4.504708703772551,-39.40735716983468 L-4.219125638057549,-39.39281328752346 L-3.9279060929978464,-39.38403055161143 L-3.6338546720091642,-39.38109354464655 L-3.3398032510204825,-39.38403055161143 L-3.0485837059607794,-39.39281328752346 L-2.7630006402457776,-39.40735716983468 L-2.485804374913895,-39.42752213300795 L-2.2196644615311714,-39.4531139774246 L-1.9671439729503584,-39.48388623963298 L-1.730674819518228,-39.5195425659262 L-1.5125343284495218,-39.55973956639032 L-1.4110012959442875,-39.581421453676484 L-1.3148233119209531,-39.604090121936956 L-1.2242320775672288,-39.62769096036435 L-1.1394458351015282,-39.65216711247171 L-1.060668842008348,-39.67745961306475 L-0.9880908789640994,-39.70350753029418 L-0.9218867926388348,-39.73024811244587 L-0.8622160744753042,-39.757616939115216 L-0.8092224764601017,-39.78554807640154 L-0.7630336648125375,-39.813974235748645 L-0.7237609124255324,-39.84282693604883 L-0.6914988307994729,-39.87203666861986 L-0.6663251421148217,-39.90153306465752 L-0.6483004919925737,-39.93124506476017 L-0.6374683033936472,-39.96110109011709 L-0.6338546720091642,-39.99102921494812 " />
			<path d="M-0.6338546720091642,-39.99102921494812 L-0.636085434401934,-40.01454634447629 L-0.6427744040463415,-40.03802849991902 L-0.6539116332744337,-40.06144075920349 L-0.6694805590781292,-40.084748304204666 L-0.6894580277413094,-40.10791647252598 L-0.7138143292734433,-40.13091080904836 L-0.7425132415935405,-40.153697117171035 L-0.7755120843987235,-40.17624150966785 L-0.8127617826373021,-40.1985104590835 L-0.8542069394919616,-40.22047084759474 L-0.8997859187645192,-40.242090016262345 L-0.9494309365397333,-40.263335813600705 L-1.060617827183922,-40.30458151167872 L-1.1871064399107984,-40.343962674779085 L-1.3281446116995115,-40.381245123287016 L-1.4828936607504821,-40.41620715756893 L-1.6504333736966805,-40.44864087630664 L-1.829767477641397,-40.47835341278009 L-2.01982956448309,-40.50516808174694 L-2.2194894322983867,-40.52892543009929 L-2.427559806074295,-40.54948418504968 L-2.6428033978248213,-40.56672209420797 " />
			<path d="M7.55086685092814,-41.5645897515917 L7.511678531060495,-41.54019083588925 L7.477573848962773,-41.515478317304456 L7.44861319827477,-41.49049595753964 L7.424847863424259,-41.46528799614036 L7.406319928810925,-41.43989907215458 L7.393062204281988,-41.41437414508451 L7.3850981670315,-41.38875841527088 L7.382441920026192,-41.36309724385076 " />
			<path d="M7.382441920026192,-41.36309724385075 L7.386055551410675,-41.33316911901972 L7.396887740009602,-41.3033130936628 L7.41491239013185,-41.27360109356015 L7.440086078816501,-41.244104697522495 L7.472348160442561,-41.21489496495146 L7.5116209128295655,-41.18604226465128 L7.55780972447713,-41.15761610530417 L7.610803322492332,-41.12968496801785 L7.670474040655862,-41.1023161413485 L7.736678126981127,-41.075575559196814 L7.809256090025376,-41.04952764196738 L7.8880330831185566,-41.02423514137434 L7.972819325584258,-40.99975898926698 L8.063410559937982,-40.97615815083959 L8.159588543961316,-40.953489482579116 L8.26112157646655,-40.93180759529295 L8.479262067535256,-40.89161059482883 L8.715731220967387,-40.85595426853561 L8.9682517095482,-40.82518200632723 L9.234391622930923,-40.79959016191058 L9.511587888262806,-40.779425198737314 L9.797170953977808,-40.76488131642609 L10.08839049903751,-40.75609858051406 L10.382441920026192,-40.753161573549185 L10.676493341014874,-40.75609858051406 L10.967712886074578,-40.76488131642609 L11.25329595178958,-40.779425198737314 L11.530492217121463,-40.79959016191058 L11.796632130504186,-40.82518200632723 L12.049152619085,-40.85595426853561 L12.285621772517128,-40.89161059482883 L12.503762263585836,-40.93180759529295 L12.605295296091072,-40.953489482579116 L12.701473280114403,-40.97615815083959 L12.792064514468127,-40.99975898926698 L12.876850756933829,-41.02423514137434 L12.95562775002701,-41.04952764196738 L13.028205713071259,-41.075575559196814 L13.094409799396523,-41.1023161413485 L13.154080517560052,-41.12968496801785 L13.207074115575255,-41.15761610530417 L13.253262927222819,-41.18604226465128 L13.292535679609825,-41.21489496495146 L13.324797761235883,-41.244104697522495 L13.349971449920535,-41.27360109356015 L13.367996100042783,-41.3033130936628 L13.37882828864171,-41.33316911901972 L13.382441920026192,-41.36309724385075 " />
			<path d="M13.382441920026192,-41.36309724385075 L13.379561193167888,-41.38982024078657 L13.370924544984458,-41.41649191661905 L13.3565485620255,-41.44306104880624 L13.336460853144494,-41.46947661173968 L13.310699996476437,-41.49568787473829 L13.279315465349127,-41.521644499475855 L13.242367533270398,-41.54729663665503 L13.199927158173786,-41.57259502174212 L13.152075846144898,-41.59749106957885 L13.09890549489025,-41.62193696768946 L13.04051821724912,-41.64588576810375 L12.977026145087436,-41.66929147752003 L12.908551213950236,-41.69210914563444 L12.835224928886358,-41.71429495146741 L12.674590631479258,-41.75660184160651 L12.496356643164672,-41.79588730505695 L12.301891489068334,-41.83184969820789 L12.092688321265095,-41.86421289281312 L11.87035345398396,-41.892728396172764 L11.636594029925815,-41.917177259122354 L11.393204912394944,-41.93737175717927 L11.142054903889795,-41.953156831938244 L10.885072396970159,-41.964411281648566 L10.624230567576944,-41.97104869183144 L10.36153222449395,-41.97301809879194 L10.098994431281255,-41.97030438093102 L9.8386330187569,-41.96292837485292 L9.582447106943846,-41.95094671537651 L9.332403755326602,-41.93445140067901 L9.090422859276677,-41.91356908591094 L8.858362408615896,-41.88846011070626 L8.638004221506005,-41.859317268054525 L8.431040263203311,-41.826364323988145 L8.239059654726411,-41.789854299450816 L8.063536471187682,-41.75006752753944 L7.905818423476013,-41.707309501036576 L7.834020364695583,-41.68491803983534 L7.7671165101956365,-41.6619085267604 L7.705235347796561,-41.638325151226624 L7.648495719316054,-41.6142132047429 L7.597006592335247,-41.58961899393045 L7.5508668509281485,-41.564589751591704 " />
			<path d="M-7.55086685092814,-42.639216459543405 L-7.511678531060495,-42.663615375245854 L-7.477573848962773,-42.688327893830646 L-7.448613198274771,-42.71331025359546 L-7.424847863424259,-42.73851821499474 L-7.406319928810925,-42.76390713898052 L-7.393062204281988,-42.789432066050594 L-7.3850981670315,-42.815047795864224 L-7.382441920026192,-42.84070896728435 " />
			<path d="M-7.382441920026192,-42.84070896728435 L-7.386055551410675,-42.87063709211538 L-7.396887740009602,-42.9004931174723 L-7.41491239013185,-42.93020511757495 L-7.440086078816501,-42.95970151361261 L-7.472348160442561,-42.98891124618364 L-7.5116209128295655,-43.017763946483825 L-7.55780972447713,-43.04619010583093 L-7.610803322492332,-43.074121243117254 L-7.670474040655862,-43.1014900697866 L-7.736678126981127,-43.12823065193829 L-7.809256090025376,-43.15427856916772 L-7.888033083118556,-43.17957106976076 L-7.972819325584257,-43.20404722186812 L-8.063410559937982,-43.227648060295515 L-8.159588543961314,-43.25031672855599 L-8.26112157646655,-43.27199861584215 L-8.479262067535256,-43.31219561630627 L-8.715731220967385,-43.34785194259949 L-8.968251709548198,-43.37862420480787 L-9.234391622930922,-43.40421604922452 L-9.511587888262802,-43.42438101239778 L-9.797170953977806,-43.43892489470901 L-10.08839049903751,-43.44770763062104 L-10.382441920026192,-43.45064463758592 L-10.676493341014872,-43.44770763062104 L-10.967712886074578,-43.43892489470901 L-11.253295951789582,-43.42438101239778 L-11.530492217121463,-43.40421604922452 L-11.796632130504186,-43.37862420480787 L-12.049152619084998,-43.34785194259949 L-12.285621772517127,-43.31219561630627 L-12.503762263585834,-43.27199861584215 L-12.605295296091072,-43.25031672855599 L-12.701473280114403,-43.227648060295515 L-12.792064514468127,-43.20404722186812 L-12.876850756933827,-43.17957106976076 L-12.95562775002701,-43.15427856916772 L-13.028205713071257,-43.12823065193829 L-13.094409799396521,-43.1014900697866 L-13.154080517560052,-43.074121243117254 L-13.207074115575253,-43.04619010583093 L-13.253262927222817,-43.017763946483825 L-13.292535679609824,-42.98891124618364 L-13.324797761235883,-42.95970151361261 L-13.349971449920535,-42.93020511757495 L-13.367996100042783,-42.9004931174723 L-13.37882828864171,-42.87063709211538 L-13.382441920026192,-42.84070896728436 " />
			<path d="M-13.382441920026192,-42.84070896728435 L-13.379561193167888,-42.81398597034853 L-13.370924544984458,-42.78731429451605 L-13.3565485620255,-42.76074516232886 L-13.336460853144494,-42.73432959939542 L-13.310699996476437,-42.708118336396815 L-13.279315465349127,-42.68216171165925 L-13.242367533270398,-42.656509574480076 L-13.199927158173786,-42.631211189392985 L-13.152075846144898,-42.60631514155625 L-13.09890549489025,-42.581869243445645 L-13.04051821724912,-42.55792044303135 L-12.977026145087436,-42.534514733615076 L-12.908551213950238,-42.51169706550066 L-12.835224928886358,-42.489511259667694 L-12.674590631479258,-42.44720436952859 L-12.496356643164672,-42.40791890607815 L-12.301891489068336,-42.37195651292721 L-12.092688321265095,-42.33959331832198 L-11.870353453983961,-42.31107781496234 L-11.636594029925819,-42.28662895201275 L-11.393204912394946,-42.26643445395583 L-11.142054903889797,-42.25064937919686 L-10.885072396970163,-42.23939492948654 L-10.624230567576948,-42.23275751930366 L-10.361532224493951,-42.23078811234316 L-10.098994431281255,-42.233501830204084 L-9.838633018756903,-42.24087783628218 L-9.582447106943851,-42.25285949575859 L-9.332403755326606,-42.26935481045609 L-9.090422859276678,-42.29023712522416 L-8.8583624086159,-42.31534610042884 L-8.638004221506009,-42.34448894308058 L-8.431040263203316,-42.37744188714695 L-8.239059654726415,-42.413951911684286 L-8.063536471187684,-42.45373868359566 L-7.905818423476015,-42.496496710098526 L-7.8340203646955855,-42.518888171299764 L-7.767116510195638,-42.5418976843747 L-7.705235347796562,-42.56548105990848 L-7.648495719316056,-42.5895930063922 L-7.597006592335248,-42.61418721720465 L-7.550866850928145,-42.6392164595434 " />
			<path d="M2.6428033978248484,-43.637084116927134 L2.8132494939866914,-43.626103032102755 L2.986610476679875,-43.61720588250326 L3.162270547214546,-43.61042427185504 L3.3396057402692474,-43.605782289240246 L3.517986140289443,-43.603296423529486 L3.696778119021986,-43.60297550481143 L3.8753465862375234,-43.60482067302727 L4.053057245646012,-43.60882537392153 L4.229278847992074,-43.61497538232356 L4.403385433326924,-43.623248852677 L4.574758554492045,-43.63361639663781 L4.742789473916562,-43.6460411874651 L4.906881325924998,-43.66047909083411 L5.066451236874667,-43.67687882160649 L5.220932395591704,-43.69518212600124 L5.369776066751314,-43.715323988518946 L5.512453540050469,-43.73723286288457 L5.648458008249362,-43.76083092618824 L5.7773063674105885,-43.78603435532144 L5.89854093294141,-43.812753624726575 L6.011731065343487,-43.84089382440235 L6.116474699895249,-43.87035499703528 L6.212399774833287,-43.90103249305988 L6.299165552959684,-43.932817342386315 L6.3764638319807965,-43.965596641475 L6.444020039278211,-43.99925395438331 L6.501594207223116,-44.033669726359825 L6.548981825569673,-44.06872170851691 L6.586014567899558,-44.10428539207321 L6.60060530238256,-44.12221970364268 L6.612560889537299,-44.14023445062355 L6.621870710091223,-44.15831363183533 L6.628526494812493,-44.17644118886527 L6.63252233185495,-44.194601020331966 L6.633854672009166,-44.21277699618698 " />
			<path d="M6.633854672009166,-44.21277699618698 L6.630241040624684,-44.24270512101801 L6.619408852025757,-44.27256114637493 L6.6013842019035085,-44.30227314647758 L6.576210513218857,-44.33176954251524 L6.543948431592798,-44.36097927508627 L6.504675679205793,-44.38983197538646 L6.4584868675582285,-44.41825813473356 L6.405493269543027,-44.446189272019886 L6.345822551379497,-44.47355809868923 L6.279618465054232,-44.50029868084092 L6.207040502009983,-44.526346598070354 L6.1282635089168025,-44.551639098663394 L6.043477266451102,-44.576115250770755 L5.952886032097378,-44.59971608919815 L5.856708048074044,-44.62238475745862 L5.75517501556881,-44.64406664474478 L5.537034524500102,-44.6842636452089 L5.300565371067973,-44.71991997150212 L5.04804488248716,-44.7506922337105 L4.7819049691044375,-44.776284078127155 L4.504708703772557,-44.79644904130041 L4.219125638057553,-44.81099292361164 L3.9279060929978478,-44.81977565952367 L3.633854672009167,-44.82271266648855 L3.339803251020486,-44.81977565952367 L3.0485837059607817,-44.81099292361164 L2.7630006402457776,-44.79644904130041 L2.4858043749138963,-44.776284078127155 L2.2196644615311736,-44.7506922337105 L1.9671439729503608,-44.71991997150212 L1.7306748195182315,-44.6842636452089 L1.5125343284495245,-44.64406664474478 L1.411001295944288,-44.62238475745862 L1.314823311920955,-44.59971608919815 L1.224232077567231,-44.576115250770755 L1.1394458351015309,-44.551639098663394 L1.0606688420083503,-44.526346598070354 L0.9880908789641021,-44.50029868084092 L0.921886792638837,-44.47355809868923 L0.8622160744753069,-44.446189272019886 L0.8092224764601048,-44.41825813473356 L0.7630336648125406,-44.38983197538646 L0.7237609124255351,-44.36097927508627 L0.6914988307994756,-44.33176954251524 L0.6663251421148235,-44.30227314647758 L0.6483004919925759,-44.27256114637493 L0.6374683033936495,-44.24270512101801 L0.6338546720091665,-44.21277699618699 " />
			<path d="M0.6338546720091665,-44.21277699618698 L0.6360854344019362,-44.189259866658816 L0.6427744040463437,-44.16577771121608 L0.6539116332744359,-44.14236545193161 L0.6694805590781314,-44.119057906930436 L0.689458027741312,-44.095889738609124 L0.7138143292734456,-44.07289540208674 L0.7425132415935431,-44.05010909396407 L0.7755120843987258,-44.027564701467256 L0.8127617826373048,-44.0052957520516 L0.8542069394919642,-43.98333536354036 L0.8997859187645214,-43.96171619487276 L0.9494309365397355,-43.9404703975344 L1.0606178271839246,-43.89922469945638 L1.1871064399108011,-43.85984353635602 L1.3281446116995137,-43.82256108784809 L1.482893660750484,-43.787599053566176 L1.6504333736966825,-43.75516533482846 L1.8297674776413988,-43.725452798355015 L2.0198295644830915,-43.698638129388165 L2.219489432298389,-43.67488078103581 L2.4275598060742984,-43.654322026085424 L2.6428033978248426,-43.637084116927134 " />
			<path d="M-6.633854672009164,2.110873890619433 L-6.633854672009164,-39.99102921494812 " />
			<path d="M-0.6338546720091642,2.1108738906194335 L-0.6338546720091642,-39.99102921494812 " />
			<path d="M-13.382441920026192,-0.7388058617168018 L-13.382441920026192,-42.84070896728435 " />
			<path d="M-7.382441920026191,-0.7388058617168016 L-7.382441920026191,-42.84070896728435 " />
			<path d="M7.382441920026193,0.738805861716801 L7.382441920026193,-41.36309724385075 " />
			<path d="M13.382441920026194,0.7388058617168011 L13.382441920026194,-41.36309724385075 " />
			<path d="M0.6338546720091656,-2.110873890619433 L0.6338546720091656,-44.21277699618698 " />
			<path d="M6.633854672009166,-2.110873890619433 L6.633854672009166,-44.21277699618698 " />

       </g>

       <!-- solid lines -->
       <g  stroke="rgb(0,0,0)" fill="none">
			<path d="M8.258760618202649,-4.7974406604987125 L7.551922460706936,-4.8453470640851615 L6.838376483520629,-4.88894970070188 L6.118756477281872,-4.928209841319808 L5.39370162774408,-4.963092614031074 L4.663855948033974,-4.993567035023161 L3.929867706621816,-5.019606036099561 L3.1923888515121317,-5.0411864887224676 L2.452074431165975,-5.058289224556162 L1.7095820126693064,-5.070899052492847 L0.9655710976643455,-5.079004772145792 L0.2207025365626052,-5.082599183797813 L-0.5243620584401791,-5.08167909479626 L-1.268960901025759,-5.076245322388816 L-2.0124326185696493,-5.066302692997592 L-2.754116839589957,-5.0518600379321725 L-3.49335478030705,-5.032930185545409 L-4.229489829792993,-5.0095299498389325 L-4.961868133190904,-4.98168011552851 L-5.6898391724862964,-4.949405419582503 L-6.412756344314645,-4.912734529249827 L-7.129977534291837,-4.871700016596935 L-7.84086568735732,-4.826338329576437 L-8.544789373623416,-4.776689759653054 L-9.241123349228292,-4.722798406015661 L-9.929249111694343,-4.6647121364072 L-10.6085554492986,-4.602482544607274 L-11.2784389839673,-4.536164904605176 L-11.938304707212504,-4.465818121504046 L-12.587566508634588,-4.391504679199778 L-13.225647696521142,-4.313290584881158 L-13.85198151007997,-4.231245310400511 L-14.46601162285122,-4.145441730566945 L-15.067192636851482,-4.055956058416979 L-15.65499056701084,-3.962867777520101 L-16.22888331547266,-3.866259571379331 L-16.788361135334938,-3.766217249989516 L-17.33292708342116,-3.6628296736185932 L-17.862097461678502,-3.5561886738795225 L-18.37540224681137,-3.4463889721630006 L-18.872385507768684,-3.3335280955033744 L-19.352605810714106,-3.2177062899525177 L-19.815636611119324,-3.0990264315386065 L-20.261066632632303,-2.977593934888884 L-20.688500232384005,-2.853516659597563 L-21.097557752408978,-2.7269048144220345 L-21.29508129356614,-2.66268348666488 L-21.487875856867664,-2.5978708593925197 L-21.675898628613584,-2.532481325481651 L-21.85910785477106,-2.4665294059220515 L-22.037462850246612,-2.4000297465919282 L-22.21092400792097,-2.332997115005536 L-22.37945280744468,-2.265446397033744 L-22.543011823792217,-2.1973925935983587 L-22.701564735572923,-2.1288508173408944 L-22.855076333096914,-2.0598362892665003 L-23.00351252619401,-1.9903643353638587 L-23.146840351784114,-1.92045038320177 L-23.285027981197317,-1.850109958503144 L-23.418044727242044,-1.7793586816972273 L-23.5458610510197,-1.708212264450806 L-23.66844856848441,-1.6366865061791034 L-23.785780056746177,-1.5647972905372334 L-23.897829460116256,-1.4925605818929444 L-24.00457189589334,-1.4199924217814037 L-24.10598365988922,-1.3471089253428814 L-24.202042231692733,-1.273926277744089 L-24.29272627967088,-1.2004607305839312 L-24.378015665705906,-1.1267285982845452 L-24.45789144966735,-1.05274625446837 L-24.53233589361807,-0.9785301283220651 L-24.601332465753263,-0.9040967009481183 L-24.664865844071706,-0.8294625017048737 L-24.72292191977828,-0.7546441045358886 L-24.775487800417075,-0.6796581242893861 L-24.822551812734442,-0.6045212130285862 L-24.864103505271245,-0.5292500563338162 L-24.900133650683802,-0.4538613695971549 L-24.930634247792984,-0.3783718943104586 L-24.955598523361054,-0.30279839434761124 L-24.975020933595783,-0.22715765224176118 L-24.988897165381534,-0.15146646545845335 L-24.9972241372371,-0.07574164266544652 L-25.0,-4.674358013831645e-14 " />
			<path d="M-25.0,-3.543455471832984e-16 L-24.998117545978612,0.062373741082766054 L-24.992470467405106,0.12473808890955404 L-24.98305961470874,0.187083651638975 L-24.96988640512931,0.2494010402586069 L-24.95295282250373,0.311680869998945 L-24.932261416967254,0.3739137617467136 L-24.90781530456945,0.436090343457326 L-24.879618166804924,0.4982012515662801 L-24.8476742500589,0.5602371323992765 L-24.81198836496775,0.6221886435808478 L-24.7725658856945,0.6840464554412853 L-24.729412749119525,0.7458012524216542 L-24.68253545394646,0.8074437344766809 L-24.63194105972353,0.8689646184753069 L-24.577637185780407,0.9303546395986936 L-24.519632010080763,0.9916045527354699 L-24.45793426799069,1.0527051338740125 L-24.392553250963214,1.1136471814915476 L-24.323498805139003,1.1744215179398663 L-24.2507813298636,1.235018990827445 L-24.174411776121303,1.295430474397762 L-24.094401644885995,1.3556468709036025 L-24.010762985389146,1.415659111977146 L-23.92350839330522,1.4754581599956291 L-23.832651008854846,1.535035009442379 L-23.738204514825917,1.5943806882630092 L-23.64018313451303,1.6534862592165795 L-23.53860162957552,1.7123428212215126 L-23.324819970868475,1.8292735028931348 L-23.09698831278217,1.9451022986075563 L-22.855243892588266,2.0597594374293555 L-22.599732328086084,2.173175854185414 L-22.33060752988788,2.28528323106719 L-22.048031608708875,2.3960140387828157 L-21.752174777717787,2.505301577234214 L-21.4432152500068,2.6130800156947456 L-21.121339131242678,2.719284432463178 L-20.78674030756363,2.8238508539700895 L-20.439620328789594,2.926716293313154 L-20.080188287016124,3.0278187881980974 L-19.708660690665155,3.1270974382624668 L-19.325261334068426,3.2244924417597316 L-18.930221162662114,3.3199451315816186 L-18.523778133873982,3.4133980105969854 L-18.106177073786675,3.5047947862859408 L-17.67766952966369,3.594080404648357 L-17.238513618426673,3.681201083366334 L-16.788973871175457,3.7661043442006665 L-16.329321073844422,3.8487390446017637 L-15.859832104091137,3.929055408516015 L-15.38078976451567,4.007005056369022 L-14.892482612310836,4.082541034207641 L-14.395204785446133,4.155617841983296 L-13.889255825490057,4.226191460959499 L-13.374940497177429,4.294219380227098 L-12.852568604830541,4.359660622311253 L-12.322454805744602,4.4224757678547375 L-11.784918420649944,4.482626979362688 L-11.240283241365171,4.540078023994488 L-10.688877335757056,4.594794295389087 L-10.131032850124747,4.646742834510567 L-9.567085809127246,4.695892349501444 L-8.997375913374707,4.7422132345317065 L-8.422246334805502,4.785677587632262 L-7.842043509972283,4.826259227502038 L-7.257116931361558,4.863933709278624 L-6.667818936872461,4.8986783392629345 L-6.074504497581599,4.9304721885890554 L-5.47753100392175,4.959296105831 L-4.877258050403208,4.985132728538818 L-4.274047219007528,5.007966493697083 L-3.668261861384044,5.027783647099474 L-3.060266879980407,5.044572251633792 L-2.4504285082390194,5.058322194472431 L-1.8391140899916918,5.069025193163969 L-1.2266918581854531,5.076674800622206 L-0.6135307130728067,5.081266409009647 L-1.6028511618807322e-15,5.082797252513088 L0.6135307130728035,5.081266409009647 L1.2266918581854502,5.076674800622206 L1.8391140899916887,5.069025193163969 L2.4504285082390163,5.058322194472431 L3.060266879980404,5.044572251633792 L3.6682618613840408,5.027783647099474 L4.274047219007525,5.007966493697084 L4.877258050403205,4.985132728538818 L5.477531003921746,4.959296105831001 L6.0745044975815965,4.9304721885890554 L6.667818936872457,4.8986783392629345 L7.257116931361554,4.863933709278624 L7.842043509972281,4.826259227502039 L8.422246334805498,4.785677587632262 L8.997375913374704,4.7422132345317065 L9.567085809127244,4.695892349501444 L10.131032850124749,4.646742834510567 L10.688877335757056,4.594794295389086 L11.240283241365168,4.540078023994488 L11.784918420649943,4.482626979362688 L12.3224548057446,4.422475767854738 L12.85256860483054,4.359660622311253 L13.374940497177427,4.294219380227099 L13.889255825490048,4.2261914609595 L14.395204785446126,4.155617841983298 L14.892482612310824,4.082541034207643 L15.38078976451566,4.007005056369024 L15.859832104091135,3.929055408516017 L16.329321073844422,3.848739044601764 L16.78897387117546,3.7661043442006665 L17.238513618426673,3.681201083366335 L17.677669529663685,3.594080404648358 L18.106177073786668,3.504794786285943 L18.52377813387397,3.413398010596987 L18.930221162662107,3.319945131581621 L19.325261334068426,3.2244924417597325 L19.708660690665162,3.1270974382624663 L20.080188287016128,3.027818788198097 L20.439620328789594,2.926716293313154 L20.786740307563633,2.8238508539700904 L21.121339131242678,2.719284432463179 L21.4432152500068,2.613080015694747 L21.752174777717784,2.5053015772342153 L22.048031608708875,2.3960140387828175 L22.33060752988788,2.2852832310671927 L22.599732328086077,2.1731758541854167 L22.855243892588263,2.0597594374293586 L23.09698831278217,1.9451022986075572 L23.324819970868475,1.8292735028931342 L23.53860162957552,1.7123428212215126 L23.640183134513034,1.6534862592165798 L23.738204514825917,1.5943806882630094 L23.832651008854846,1.5350350094423795 L23.92350839330522,1.4754581599956305 L24.010762985389146,1.4156591119771473 L24.094401644885995,1.355646870903604 L24.174411776121303,1.2954304743977636 L24.2507813298636,1.235018990827447 L24.323498805139003,1.1744215179398683 L24.39255325096321,1.1136471814915498 L24.457934267990687,1.052705133874015 L24.519632010080763,0.9916045527354724 L24.577637185780407,0.9303546395986962 L24.63194105972353,0.8689646184753097 L24.682535453946457,0.8074437344766838 L24.729412749119522,0.7458012524216574 L24.772565885694497,0.6840464554412888 L24.81198836496775,0.6221886435808514 L24.8476742500589,0.5602371323992781 L24.87961816680492,0.49820125156628187 L24.90781530456945,0.436090343457328 L24.932261416967254,0.37391376174671354 L24.95295282250373,0.31168086999894523 L24.96988640512931,0.24940104025860738 L24.98305961470874,0.18708365163897572 L24.992470467405106,0.12473808890955496 L24.998117545978612,0.06237374108276718 L25.0,2.3548962842749873e-14 " />
			<path d="M25.0,9.768086857838099e-16 L24.998838009569944,-0.04900540797815295 L24.995352146297517,-0.09800626045109727 L24.989542734225896,-0.14699800233710322 L24.981410313393585,-0.19597607940135517 L24.970955639784194,-0.24493593867930438 L24.958179685256184,-0.29387302889991584 L24.9430836374525,-0.34278280090874863 L24.92566889969019,-0.39166070809083964 L24.905937090829948,-0.44050220679336016 L24.88389004512561,-0.48930275674798596 L24.859529812053676,-0.5380578214929524 L24.832858656122756,-0.5867628687947676 L24.772593707596048,-0.6840048058037703 L24.703117607758625,-0.7809924104712394 L24.624456189790312,-0.8776896200613786 L24.536638702232125,-0.9740604798154991 L24.439697798110842,-1.0700691563210174 L24.333669522797674,-1.165679950835324 L24.218593300605583,-1.2608573125595983 L24.094511920130195,-1.355565851857596 L23.96147151833981,-1.4497703534145103 L23.81952156342034,-1.5434357893310346 L23.668714836381675,-1.6365273321477203 L23.509107411432183,-1.7290103677948103 L23.340758635128743,-1.8208505084627358 L23.163731104310024,-1.9120136053884644 L22.97809064282118,-2.0024657615529926 L22.78390627703871,-2.092173344285208 L22.5812502102045,-2.1811029977674643 L22.37019779557859,-2.269221655438226 L22.150827508420722,-2.356496552287151 L21.923220916811008,-2.4428952370380386 L21.687462651320605,-2.5283855842151466 L21.443640373543683,-2.612935806088344 L21.191844743502376,-2.696514464492685 L20.93216938593678,-2.7790904825180185 L20.664710855492665,-2.8606331560642575 L20.389568600819715,-2.9411121652580245 L20.10684492759369,-3.020497585726455 L19.816644960476307,-3.098759899723914 L19.519076604026896,-3.175870007107527 L19.21425050258044,-3.2517992361574497 L18.902279999106867,-3.326519354237813 L18.583281093066958,-3.4000025782944157 L18.25737239728043,-3.4722215851852596 L17.92467509382235,-3.543149521840062 L17.58531288896423,-3.6127600152449793 L17.239411967176476,-3.6810271822488523 L16.887100944209493,-3.7479256391872906 L16.528510819270696,-3.8134305113210285 L16.163774926315273,-3.8775174420850695 L15.793028884468843,-3.940162602145141 L15.416410547600485,-4.00134269825811 L15.034059953064727,-4.061034981933076 L14.646119269631674,-4.119217257889908 L14.252732744624652,-4.175867892312066 L13.854046650285017,-4.230965820890676 L13.450209229383953,-4.284490556656828 L13.041370640101608,-4.33642219759922 L12.627682900194076,-4.386741434064278 L12.209299830468826,-4.435429555936042 L11.786376997589814,-4.4824684595931155 L11.359071656233434,-4.5278406546400936 L10.927542690616734,-4.571529270410996 L10.491950555419747,-4.613518062242258 L10.052457216123912,-4.653791417512957 L9.609226088788796,-4.692334361450016 L9.162421979289299,-4.729132562696264 L8.712211022036186,-4.764172338639225 L8.258760618202858,-4.797440660498698 " />
			<path d="M8.258760618202649,-46.899343766066266 L7.551922460706936,-46.94725016965271 L6.838376483520629,-46.99085280626943 L6.118756477281872,-47.03011294688736 L5.39370162774408,-47.06499571959863 L4.663855948033974,-47.09547014059071 L3.929867706621816,-47.12150914166711 L3.1923888515121317,-47.14308959429002 L2.452074431165975,-47.160192330123714 L1.7095820126693064,-47.1728021580604 L0.9655710976643455,-47.180907877713345 L0.2207025365626052,-47.18450228936536 L-0.5243620584401791,-47.18358220036381 L-1.268960901025759,-47.178148427956366 L-2.0124326185696493,-47.16820579856514 L-2.754116839589957,-47.153763143499724 L-3.49335478030705,-47.13483329111296 L-4.229489829792993,-47.111433055406486 L-4.961868133190904,-47.08358322109606 L-5.6898391724862964,-47.051308525150056 L-6.412756344314645,-47.014637634817376 L-7.129977534291837,-46.973603122164484 L-7.84086568735732,-46.92824143514399 L-8.544789373623416,-46.878592865220604 L-9.241123349228292,-46.824701511583214 L-9.929249111694343,-46.76661524197475 L-10.6085554492986,-46.70438565017483 L-11.2784389839673,-46.63806801017273 L-11.938304707212504,-46.567721227071594 L-12.587566508634588,-46.49340778476733 L-13.225647696521142,-46.41519369044871 L-13.85198151007997,-46.33314841596806 L-14.46601162285122,-46.247344836134495 L-15.067192636851482,-46.15785916398453 L-15.65499056701084,-46.064770883087654 L-16.22888331547266,-45.96816267694688 L-16.788361135334938,-45.86812035555707 L-17.33292708342116,-45.76473277918615 L-17.862097461678502,-45.658091779447076 L-18.37540224681137,-45.54829207773055 L-18.872385507768684,-45.43543120107093 L-19.352605810714106,-45.31960939552007 L-19.815636611119324,-45.200929537106155 L-20.261066632632303,-45.07949704045644 L-20.688500232384005,-44.95541976516512 L-21.097557752408978,-44.828807919989586 L-21.29508129356614,-44.76458659223243 L-21.487875856867664,-44.69977396496007 L-21.675898628613584,-44.6343844310492 L-21.85910785477106,-44.568432511489604 L-22.037462850246612,-44.50193285215948 L-22.21092400792097,-44.434900220573084 L-22.37945280744468,-44.36734950260129 L-22.543011823792217,-44.29929569916591 L-22.701564735572923,-44.23075392290845 L-22.855076333096914,-44.16173939483405 L-23.00351252619401,-44.09226744093141 L-23.146840351784114,-44.02235348876932 L-23.285027981197317,-43.9520130640707 L-23.418044727242044,-43.881261787264776 L-23.5458610510197,-43.81011537001836 L-23.66844856848441,-43.738589611746654 L-23.785780056746177,-43.66670039610479 L-23.897829460116256,-43.5944636874605 L-24.00457189589334,-43.52189552734895 L-24.10598365988922,-43.44901203091043 L-24.202042231692733,-43.37582938331164 L-24.29272627967088,-43.302363836151486 L-24.378015665705906,-43.228631703852095 L-24.45789144966735,-43.15464936003592 L-24.53233589361807,-43.080433233889615 L-24.601332465753263,-43.00599980651567 L-24.664865844071706,-42.931365607272426 L-24.72292191977828,-42.85654721010344 L-24.775487800417075,-42.78156122985694 L-24.822551812734442,-42.706424318596135 L-24.864103505271245,-42.631153161901366 L-24.900133650683802,-42.55576447516471 L-24.930634247792984,-42.48027499987801 L-24.955598523361054,-42.40470149991516 L-24.975020933595783,-42.329060757809316 L-24.988897165381534,-42.253369571026006 L-24.9972241372371,-42.177644748233 L-25.0,-42.1019031055676 " />
			<path d="M25.0,-42.10190310556755 L24.998838009569944,-42.1509085135457 L24.995352146297517,-42.19990936601865 L24.989542734225896,-42.24890110790466 L24.981410313393585,-42.297879184968906 L24.970955639784194,-42.346839044246856 L24.958179685256184,-42.39577613446747 L24.9430836374525,-42.4446859064763 L24.92566889969019,-42.49356381365839 L24.905937090829948,-42.54240531236091 L24.88389004512561,-42.59120586231554 L24.859529812053676,-42.63996092706051 L24.832858656122756,-42.688665974362316 L24.772593707596048,-42.785907911371325 L24.703117607758625,-42.88289551603879 L24.624456189790312,-42.97959272562893 L24.536638702232125,-43.07596358538305 L24.439697798110842,-43.17197226188857 L24.333669522797674,-43.26758305640288 L24.218593300605583,-43.36276041812715 L24.094511920130195,-43.45746895742515 L23.96147151833981,-43.55167345898206 L23.81952156342034,-43.645338894898586 L23.668714836381675,-43.73843043771527 L23.509107411432183,-43.83091347336236 L23.340758635128743,-43.922753614030285 L23.163731104310024,-44.01391671095602 L22.97809064282118,-44.10436886712054 L22.78390627703871,-44.19407644985276 L22.5812502102045,-44.28300610333501 L22.37019779557859,-44.371124761005774 L22.150827508420722,-44.4583996578547 L21.923220916811008,-44.54479834260559 L21.687462651320605,-44.630288689782695 L21.443640373543683,-44.714838911655896 L21.191844743502376,-44.79841757006024 L20.93216938593678,-44.88099358808557 L20.664710855492665,-44.96253626163181 L20.389568600819715,-45.04301527082558 L20.10684492759369,-45.122400691294004 L19.816644960476307,-45.20066300529147 L19.519076604026896,-45.27777311267508 L19.21425050258044,-45.353702341725004 L18.902279999106867,-45.42842245980536 L18.583281093066958,-45.50190568386196 L18.25737239728043,-45.57412469075281 L17.92467509382235,-45.645052627407615 L17.58531288896423,-45.71466312081253 L17.239411967176476,-45.782930287816406 L16.887100944209493,-45.849828744754845 L16.528510819270696,-45.91533361688858 L16.163774926315273,-45.97942054765262 L15.793028884468843,-46.042065707712695 L15.416410547600485,-46.10324580382566 L15.034059953064727,-46.16293808750063 L14.646119269631674,-46.22112036345746 L14.252732744624652,-46.277770997879614 L13.854046650285017,-46.332868926458225 L13.450209229383953,-46.38639366222438 L13.041370640101608,-46.43832530316677 L12.627682900194076,-46.48864453963183 L12.209299830468826,-46.53733266150359 L11.786376997589814,-46.584371565160666 L11.359071656233434,-46.629743760207646 L10.927542690616734,-46.67343237597855 L10.491950555419747,-46.71542116780981 L10.052457216123912,-46.75569452308051 L9.609226088788796,-46.79423746701757 L9.162421979289299,-46.831035668263816 L8.712211022036186,-46.86607544420678 L8.258760618202858,-46.89934376606625 " />
			<path d="M-2.6428033978248466,1.535181011359588 L-2.8132494939866888,1.524199926535208 L-2.986610476679875,1.5153027769357048 L-3.1622705472145465,1.5085211662874862 L-3.3396057402692474,1.503879183672694 L-3.517986140289443,1.5013933179619385 L-3.6967781190219857,1.5010723992438824 L-3.875346586237522,1.5029175674597224 L-4.05305724564601,1.5069222683539845 L-4.229278847992073,1.513072276756012 L-4.403385433326921,1.5213457471094545 L-4.574758554492043,1.531713291070261 L-4.7427894739165595,1.544138081897554 L-4.906881325924996,1.5585759852665606 L-5.066451236874665,1.574975716038948 L-5.220932395591701,1.5932790204336946 L-5.36977606675131,1.6134208829514 L-5.5124535400504655,1.6353297573170213 L-5.6484580082493565,1.6589278206206917 L-5.777306367410585,1.6841312497538907 L-5.8985409329414065,1.7108505191590286 L-6.011731065343483,1.7389907188348008 L-6.116474699895245,1.7684518914677259 L-6.212399774833283,1.799129387492331 L-6.29916555295968,1.8309142368187692 L-6.376463831980794,1.8636935359074536 L-6.444020039278209,1.8973508488157662 L-6.501594207223115,1.9317666207922803 L-6.54898182556967,1.9668186029493617 L-6.586014567899555,2.0023822865056595 L-6.600605302382558,2.020316598075127 L-6.612560889537297,2.038331345056003 L-6.621870710091221,2.0564105262677748 L-6.6285264948124905,2.0745380832977203 L-6.632522331854949,2.092697914764419 L-6.633854672009164,2.1108738906194278 " />
			<path d="M-6.633854672009164,2.1108738906194335 L-6.630241040624681,2.1408020154504666 L-6.619408852025755,2.1706580408073872 L-6.601384201903507,2.200370040910032 L-6.5762105132188555,2.22986643694769 L-6.543948431592796,2.259076169518727 L-6.504675679205791,2.2879288698189093 L-6.458486867558227,2.316355029166015 L-6.405493269543024,2.3442861664523402 L-6.345822551379494,2.371654993121683 L-6.279618465054229,2.3983955752733714 L-6.20704050200998,2.424443492502803 L-6.1282635089168,2.449735993095844 L-6.043477266451099,2.474212145203205 L-5.952886032097375,2.4978129836306016 L-5.856708048074042,2.520481651891072 L-5.755175015568807,2.5421635391772366 L-5.5370345245001005,2.5823605396413556 L-5.300565371067972,2.6180168659345737 L-5.048044882487158,2.648789128142956 L-4.781904969104434,2.674380972559607 L-4.504708703772551,2.6945459357328683 L-4.219125638057549,2.7090898180440917 L-3.9279060929978464,2.7178725539561253 L-3.6338546720091642,2.720809560921004 L-3.3398032510204825,2.7178725539561253 L-3.0485837059607794,2.7090898180440917 L-2.7630006402457776,2.6945459357328683 L-2.485804374913895,2.674380972559607 L-2.2196644615311714,2.648789128142956 L-1.9671439729503584,2.6180168659345737 L-1.730674819518228,2.5823605396413556 L-1.5125343284495218,2.5421635391772366 L-1.4110012959442875,2.520481651891072 L-1.3148233119209531,2.4978129836306016 L-1.2242320775672288,2.474212145203205 L-1.1394458351015282,2.449735993095844 L-1.060668842008348,2.424443492502803 L-0.9880908789640994,2.3983955752733714 L-0.9218867926388348,2.3716549931216835 L-0.8622160744753042,2.3442861664523402 L-0.8092224764601017,2.316355029166015 L-0.7630336648125375,2.2879288698189093 L-0.7237609124255324,2.2590761695187274 L-0.6914988307994729,2.2298664369476904 L-0.6663251421148217,2.2003700409100326 L-0.6483004919925737,2.1706580408073872 L-0.6374683033936472,2.1408020154504666 L-0.6338546720091642,2.110873890619436 " />
			<path d="M-0.6338546720091642,2.1108738906194335 L-0.636085434401934,2.087356761091271 L-0.6427744040463415,2.063874605648533 L-0.6539116332744337,2.040462346364061 L-0.6694805590781292,2.0171548013628846 L-0.6894580277413094,1.9939866330415736 L-0.7138143292734433,1.9709922965191946 L-0.7425132415935405,1.948205988396522 L-0.7755120843987235,1.9256615958997094 L-0.8127617826373021,1.9033926464840563 L-0.8542069394919616,1.8814322579728178 L-0.8997859187645192,1.8598130893052085 L-0.9494309365397333,1.8385672919668465 L-1.060617827183922,1.7973215938888323 L-1.1871064399107984,1.7579404307884705 L-1.3281446116995115,1.7206579822805397 L-1.4828936607504821,1.6856959479986262 L-1.6504333736966805,1.65326222926091 L-1.829767477641397,1.6235496927874644 L-2.01982956448309,1.5967350238206142 L-2.2194894322983867,1.5729776754682596 L-2.427559806074295,1.5524189205178787 L-2.6428033978248213,1.5351810113595898 " />
			<path d="M-7.55086685092814,-0.5373133539758557 L-7.511678531060495,-0.5617122696783066 L-7.477573848962773,-0.5864247882630985 L-7.448613198274771,-0.6114071480279083 L-7.424847863424259,-0.6366151094271956 L-7.406319928810925,-0.662004033412976 L-7.393062204281988,-0.6875289604830457 L-7.3850981670315,-0.7131446902966777 L-7.382441920026192,-0.738805861716799 " />
			<path d="M-7.382441920026192,-0.7388058617168016 L-7.386055551410675,-0.7687339865478344 L-7.396887740009602,-0.7985900119047553 L-7.41491239013185,-0.8283020120074004 L-7.440086078816501,-0.8577984080450581 L-7.472348160442561,-0.8870081406160951 L-7.5116209128295655,-0.9158608409162771 L-7.55780972447713,-0.944287000263383 L-7.610803322492332,-0.9722181375497084 L-7.670474040655862,-0.9995869642190515 L-7.736678126981127,-1.0263275463707395 L-7.809256090025376,-1.0523754636001712 L-7.888033083118556,-1.0776679641932123 L-7.972819325584257,-1.1021441163005732 L-8.063410559937982,-1.1257449547279692 L-8.159588543961314,-1.14841362298844 L-8.26112157646655,-1.1700955102746045 L-8.479262067535256,-1.2102925107387237 L-8.715731220967385,-1.2459488370319416 L-8.968251709548198,-1.2767210992403242 L-9.234391622930922,-1.302312943656975 L-9.511587888262802,-1.3224779068302364 L-9.797170953977806,-1.3370217891414597 L-10.08839049903751,-1.3458045250534934 L-10.382441920026192,-1.3487415320183722 L-10.676493341014872,-1.3458045250534934 L-10.967712886074578,-1.3370217891414597 L-11.253295951789582,-1.3224779068302364 L-11.530492217121463,-1.302312943656975 L-11.796632130504186,-1.2767210992403242 L-12.049152619084998,-1.2459488370319418 L-12.285621772517127,-1.210292510738724 L-12.503762263585834,-1.1700955102746047 L-12.605295296091072,-1.1484136229884399 L-12.701473280114403,-1.1257449547279694 L-12.792064514468127,-1.1021441163005734 L-12.876850756933827,-1.0776679641932125 L-12.95562775002701,-1.0523754636001714 L-13.028205713071257,-1.02632754637074 L-13.094409799396521,-0.9995869642190518 L-13.154080517560052,-0.9722181375497089 L-13.207074115575253,-0.9442870002633837 L-13.253262927222817,-0.9158608409162778 L-13.292535679609824,-0.8870081406160959 L-13.324797761235883,-0.8577984080450585 L-13.349971449920535,-0.8283020120074002 L-13.367996100042783,-0.7985900119047553 L-13.37882828864171,-0.7687339865478346 L-13.382441920026192,-0.7388058617168074 " />
			<path d="M-13.382441920026192,-0.7388058617168017 L-13.379561193167888,-0.7120828647809839 L-13.370924544984458,-0.6854111889485044 L-13.3565485620255,-0.6588420567613142 L-13.336460853144494,-0.6324264938278757 L-13.310699996476437,-0.6062152308292688 L-13.279315465349127,-0.5802586060917 L-13.242367533270398,-0.5546064689125244 L-13.199927158173786,-0.5293080838254387 L-13.152075846144898,-0.5044120359887043 L-13.09890549489025,-0.47996613787810055 L-13.04051821724912,-0.45601733746380246 L-12.977026145087436,-0.43261162804752834 L-12.908551213950238,-0.40979395993311385 L-12.835224928886358,-0.38760815410014626 L-12.674590631479258,-0.3453012639610427 L-12.496356643164672,-0.3060158005106056 L-12.301891489068336,-0.270053407359666 L-12.092688321265095,-0.2376902127544358 L-11.870353453983961,-0.209174709394793 L-11.636594029925819,-0.18472584644520218 L-11.393204912394946,-0.1645313483882862 L-11.142054903889797,-0.14874627362931236 L-10.885072396970163,-0.13749182391898807 L-10.624230567576948,-0.13085441373611473 L-10.361532224493951,-0.12888500677561354 L-10.098994431281255,-0.13159872463653388 L-9.838633018756903,-0.1389747307146345 L-9.582447106943851,-0.15095639019104123 L-9.332403755326606,-0.16745170488854577 L-9.090422859276678,-0.18833401965661323 L-8.8583624086159,-0.2134429948612946 L-8.638004221506009,-0.24258583751302598 L-8.431040263203316,-0.2755387815794058 L-8.239059654726415,-0.31204880611673974 L-8.063536471187684,-0.3518355780281081 L-7.905818423476015,-0.39459360453097564 L-7.8340203646955855,-0.4169850657322149 L-7.767116510195638,-0.439994578807157 L-7.705235347796562,-0.4635779543409274 L-7.648495719316056,-0.4876899008246528 L-7.597006592335248,-0.5122841116371057 L-7.550866850928145,-0.5373133539758529 " />
			<path d="M7.550866850928141,0.5373133539758551 L7.511678531060497,0.5617122696783057 L7.477573848962775,0.5864247882630977 L7.448613198274772,0.6114071480279077 L7.424847863424261,0.6366151094271952 L7.406319928810927,0.6620040334129758 L7.39306220428199,0.6875289604830451 L7.385098167031502,0.7131446902966769 L7.382441920026194,0.7388058617167954 " />
			<path d="M7.382441920026194,0.738805861716801 L7.386055551410677,0.7687339865478339 L7.396887740009603,0.7985900119047546 L7.414912390131851,0.8283020120073996 L7.440086078816503,0.8577984080450575 L7.472348160442563,0.8870081406160946 L7.511620912829567,0.9158608409162766 L7.557809724477131,0.9442870002633826 L7.610803322492334,0.9722181375497079 L7.670474040655864,0.9995869642190508 L7.736678126981129,1.026327546370739 L7.809256090025378,1.0523754636001708 L7.888033083118558,1.0776679641932119 L7.972819325584259,1.1021441163005727 L8.063410559937983,1.125744954727969 L8.159588543961316,1.1484136229884394 L8.261121576466552,1.1700955102746038 L8.479262067535258,1.210292510738723 L8.715731220967388,1.245948837031941 L8.968251709548202,1.2767210992403237 L9.234391622930925,1.3023129436569745 L9.511587888262806,1.322477906830236 L9.79717095397781,1.3370217891414593 L10.088390499037512,1.345804525053493 L10.382441920026194,1.3487415320183715 L10.676493341014876,1.345804525053493 L10.96771288607458,1.3370217891414593 L11.253295951789582,1.322477906830236 L11.530492217121465,1.3023129436569745 L11.796632130504188,1.2767210992403235 L12.049152619085003,1.245948837031941 L12.285621772517132,1.210292510738723 L12.503762263585838,1.1700955102746038 L12.605295296091072,1.1484136229884392 L12.701473280114406,1.1257449547279688 L12.79206451446813,1.1021441163005727 L12.87685075693383,1.0776679641932119 L12.95562775002701,1.0523754636001708 L13.028205713071259,1.0263275463707389 L13.094409799396525,0.9995869642190506 L13.154080517560054,0.9722181375497077 L13.207074115575256,0.9442870002633826 L13.25326292722282,0.9158608409162765 L13.292535679609827,0.8870081406160941 L13.324797761235885,0.8577984080450572 L13.349971449920536,0.8283020120073994 L13.367996100042784,0.7985900119047546 L13.37882828864171,0.768733986547834 L13.382441920026194,0.7388058617168036 " />
			<path d="M13.382441920026194,0.738805861716801 L13.379561193167888,0.7120828647809833 L13.370924544984462,0.6854111889485035 L13.356548562025502,0.6588420567613135 L13.336460853144496,0.6324264938278751 L13.310699996476437,0.6062152308292679 L13.279315465349129,0.5802586060916993 L13.2423675332704,0.5546064689125239 L13.199927158173786,0.529308083825438 L13.1520758461449,0.5044120359887034 L13.09890549489025,0.4799661378780998 L13.040518217249122,0.45601733746380174 L12.977026145087438,0.4326116280475275 L12.908551213950238,0.40979395993311285 L12.83522492888636,0.3876081541001454 L12.67459063147926,0.3453012639610419 L12.496356643164674,0.3060158005106046 L12.301891489068336,0.2700534073596651 L12.092688321265097,0.23769021275443503 L11.870353453983961,0.2091747093947921 L11.636594029925817,0.18472584644520107 L11.393204912394946,0.1645313483882852 L11.142054903889797,0.1487462736293116 L10.88507239697016,0.1374918239189873 L10.624230567576946,0.13085441373611395 L10.361532224493951,0.12888500677561276 L10.098994431281257,0.1315987246365331 L9.838633018756902,0.13897473071463384 L9.582447106943848,0.15095639019104068 L9.332403755326604,0.16745170488854522 L9.090422859276678,0.18833401965661267 L8.858362408615898,0.21344299486129426 L8.638004221506007,0.24258583751302576 L8.431040263203315,0.2755387815794056 L8.239059654726415,0.3120488061167395 L8.063536471187682,0.3518355780281082 L7.905818423476015,0.39459360453097553 L7.834020364695585,0.416985065732215 L7.767116510195638,0.43999457880715664 L7.705235347796563,0.4635779543409271 L7.648495719316056,0.4876899008246528 L7.597006592335249,0.5122841116371054 L7.55086685092815,0.53731335397585 " />
			<path d="M2.642803397824848,-1.5351810113595876 L2.813249493986691,-1.5241999265352075 L2.986610476679874,-1.5153027769357044 L3.162270547214546,-1.508521166287486 L3.3396057402692465,-1.503879183672694 L3.5179861402894423,-1.5013933179619383 L3.6967781190219857,-1.5010723992438821 L3.875346586237523,-1.5029175674597224 L4.053057245646011,-1.5069222683539842 L4.229278847992074,-1.513072276756012 L4.403385433326923,-1.521345747109454 L4.574758554492044,-1.5317132910702609 L4.742789473916561,-1.5441380818975539 L4.906881325924998,-1.5585759852665604 L5.066451236874666,-1.574975716038948 L5.220932395591703,-1.5932790204336944 L5.369776066751314,-1.6134208829514 L5.512453540050469,-1.6353297573170216 L5.648458008249361,-1.6589278206206917 L5.7773063674105885,-1.684131249753891 L5.89854093294141,-1.7108505191590289 L6.011731065343486,-1.738990718834801 L6.116474699895248,-1.768451891467726 L6.212399774833286,-1.7991293874923309 L6.299165552959683,-1.830914236818769 L6.3764638319807965,-1.8636935359074531 L6.444020039278211,-1.8973508488157655 L6.501594207223116,-1.9317666207922795 L6.548981825569672,-1.9668186029493613 L6.586014567899557,-2.002382286505659 L6.60060530238256,-2.0203165980751265 L6.612560889537299,-2.0383313450560028 L6.621870710091223,-2.0564105262677748 L6.628526494812492,-2.07453808329772 L6.63252233185495,-2.0926979147644187 L6.633854672009166,-2.1108738906194304 " />
			<path d="M6.633854672009166,-2.110873890619433 L6.630241040624683,-2.1408020154504657 L6.619408852025757,-2.170658040807387 L6.6013842019035085,-2.2003700409100317 L6.576210513218857,-2.2298664369476895 L6.543948431592797,-2.2590761695187265 L6.504675679205793,-2.2879288698189084 L6.4584868675582285,-2.316355029166014 L6.405493269543026,-2.34428616645234 L6.345822551379496,-2.371654993121683 L6.279618465054231,-2.398395575273371 L6.207040502009982,-2.4244434925028022 L6.1282635089168025,-2.4497359930958438 L6.043477266451101,-2.4742121452032046 L5.9528860320973775,-2.4978129836306007 L5.856708048074044,-2.520481651891071 L5.755175015568809,-2.5421635391772357 L5.537034524500101,-2.582360539641355 L5.3005653710679725,-2.618016865934573 L5.04804488248716,-2.6487891281429556 L4.781904969104437,-2.674380972559606 L4.504708703772556,-2.6945459357328674 L4.219125638057552,-2.7090898180440908 L3.9279060929978473,-2.7178725539561244 L3.6338546720091665,-2.7208095609210035 L3.3398032510204856,-2.7178725539561244 L3.048583705960781,-2.709089818044091 L2.763000640245777,-2.694545935732868 L2.4858043749138963,-2.6743809725596064 L2.219664461531173,-2.6487891281429556 L1.9671439729503604,-2.618016865934573 L1.730674819518231,-2.582360539641355 L1.512534328449524,-2.5421635391772357 L1.4110012959442875,-2.520481651891071 L1.3148233119209545,-2.4978129836306007 L1.2242320775672306,-2.4742121452032046 L1.1394458351015304,-2.4497359930958438 L1.0606688420083499,-2.4244434925028027 L0.9880908789641016,-2.398395575273371 L0.9218867926388365,-2.371654993121683 L0.8622160744753065,-2.3442861664523402 L0.8092224764601044,-2.316355029166015 L0.7630336648125402,-2.2879288698189093 L0.7237609124255346,-2.2590761695187274 L0.6914988307994752,-2.22986643694769 L0.6663251421148231,-2.2003700409100313 L0.6483004919925754,-2.170658040807387 L0.637468303393649,-2.140802015450466 L0.633854672009166,-2.110873890619439 " />
			<path d="M0.633854672009166,-2.110873890619433 L0.6360854344019358,-2.08735676109127 L0.6427744040463432,-2.0638746056485324 L0.6539116332744355,-2.040462346364061 L0.669480559078131,-2.017154801362884 L0.6894580277413116,-1.993986633041573 L0.7138143292734451,-1.9709922965191942 L0.7425132415935427,-1.9482059883965215 L0.7755120843987253,-1.9256615958997088 L0.8127617826373044,-1.9033926464840556 L0.8542069394919638,-1.881432257972817 L0.899785918764521,-1.859813089305208 L0.9494309365397351,-1.8385672919668457 L1.0606178271839242,-1.7973215938888318 L1.1871064399108007,-1.75794043078847 L1.3281446116995133,-1.7206579822805392 L1.4828936607504835,-1.6856959479986258 L1.650433373696682,-1.6532622292609098 L1.8297674776413984,-1.623549692787464 L2.019829564483091,-1.596735023820614 L2.2194894322983885,-1.5729776754682594 L2.427559806074298,-1.5524189205178782 L2.642803397824842,-1.535181011359588 " />
			<path d="M25.000000000000004,-42.10190310556755 L25.000000000000004,2.220446049250313e-16 " />
			<path d="M-25.000000000000004,-42.10190310556755 L-25.000000000000004,-2.220446049250313e-16 " />

       </g>
    </g>
    <g transform="translate(20,210.0)" stroke="rgb(0,0,255)">
        <line x1="30" y1="-30" x2="75" y2="-33" stroke-width="3" stroke="#000000" />
         <text x="80" y="-30" style="stroke:#000000">X </text>

        <line x1="30" y1="-30" x2="30" y2="-75" stroke-width="3" stroke="#000000" />
         <text x="25" y="-85" style="stroke:#000000">Y </text>

        <line x1="30" y1="-30" x2="58" y2="-15" stroke-width="3" stroke="#000000" />
         <text x="65" y="-5" style="stroke:#000000">Z </text>
        <!--
            <line x1="0" y1="0" x2="3.443822800568074" y2="0" stroke-width="3" />
            <text x="0" y="20" style="stroke:#000000">1  mm </text>
        -->
    </g>
</svg>
