<?xml version="1.0" encoding="UTF-8" standalone="no"?>
<svg
   xmlns:svg="http://www.w3.org/2000/svg"
   xmlns="http://www.w3.org/2000/svg"
   width="800.0"
   height="240.0"

>
    <g transform="scale(2.2023305042121333, -2.2023305042121333)   translate(127.62336688692693,-47.35647208708943)" stroke-width="0.45406445494326125"  fill="none">
       <!-- hidden lines -->
       <g  stroke="rgb(160,160,160)" fill="none" stroke-dasharray="0.45406445494326125,0.45406445494326125" >
			<path d="M36.81047589827468,2.619402600632302 L36.809330790808794,2.92051552491629 L36.805895539655566,3.2214467452668067 L36.80017035854394,3.5221775388296255 L36.792155603674,3.8226891952203506 L36.78185177369487,4.122963017688509 L36.76925950967366,4.422980324280788 L36.754379595055575,4.722722449003387 L36.7372129556152,5.022170742983313 L36.71776065939886,5.321306575628656 L36.69602391665822,5.620111335787744 L36.672004079774936,5.918566432907019 L36.64570264317656,6.216653298187705 L36.617121243243524,6.514353385741071 L36.58626165820738,6.81164817374232 L36.55312580804008,7.108519165582932 L36.51771575433463,7.404947891021404 L36.48003370017674,7.700915907332506 L36.4400819900078,7.99640480045467 L36.397863109479005,8.291396186135584 L36.35337968529668,8.585871711076118 L36.30663448505892,8.879813054072098 L36.257630417083334,9.17320192715424 L36.20637053022613,9.466020076725934 L36.15285801369245,9.758249284698941 L36.09709619683788,10.049871369626814 L36.03908854896139,10.340868187836133 L35.978838679089435,10.63122163455531 L35.916350335751424,10.920913645041022 L35.8516274067465,11.209926195702092 L35.78467391890169,11.498241305220903 L35.7154940378213,11.785841035672098 L35.64409206762781,12.072707493638635 L35.570472450694055,12.35882283132502 L35.49463976736686,12.644169247667776 L35.41659873568203,12.92872898944291 L35.336354211070855,13.212484352370499 L35.25391118605797,13.495417682216164 L35.169274789950805,13.777511375889453 L35.08245028852039,14.058747882539071 L34.993443083673796,14.339109704644741 L34.902258713118016,14.618579399105968 L34.808902850015414,14.897139578327202 L34.71338130263081,15.174772911299613 L34.615700013970056,15.451462124679441 L34.515865061410324,15.727190003862619 L34.413882656321974,16.00193939405583 L34.30975914368213,16.275693201343813 L34.203501001679875,16.548434393752864 L34.095114841313226,16.82014600231055 L33.98460740597783,17.090811122101393 L33.87198557104742,17.360412913318704 L33.75725634344599,17.628934602312235 L33.640426861211964,17.89635948263181 L33.52150439305399,18.162670916066727 L33.40049633789872,18.42785233368093 L33.27741022443057,18.69188723684386 L33.152253710623185,18.954759198256976 L33.02503458326305,19.216451862975738 L32.89576075746506,19.476948949427207 L32.76444027617999,19.73623425042301 L32.63108130969414,19.994291634167695 L32.49569215512101,20.251105045262378 L32.35828123588506,20.506658505703673 L32.218857101197685,20.760936115877747 L32.07742842552522,21.013922055549614 L31.93400400804935,21.265600584847327 L31.7885927721196,21.51595604524129 L31.64120376469816,21.764972860518505 L31.491846155797028,22.012635537751624 L31.34052923790747,22.258928668262882 L31.187262425421906,22.503836928582782 L31.03205525404813,22.747345081403417 L30.874917380216093,22.989437976526546 L30.715858580477057,23.230100551806146 L30.554888750895373,23.469317834085523 L30.392017906432763,23.707074940128898 L30.227256180325256,23.943357077547393 L30.060613823452673,24.178149545719346 L29.892101203700925,24.411437736704954 L29.7217288053169,24.64320713615509 L29.549507228256232,24.873443324214357 L29.375447187523754,25.102131976418253 L29.199559512506873,25.329258864584354 L29.02185514630181,25.554809857697556 L28.84234514503276,25.77877092278927 L28.66104067716399,26.001128125810478 L28.47795302280502,26.221867632498693 L28.293093573008818,26.4409757092386 L28.10647382906302,26.658438723916614 L27.918105401774433,26.874243146768993 L27.728000010746648,27.088375551223507 L27.536169483650838,27.300822614734958 L27.342625755489927,27.511571119613937 L27.14738086785604,27.720607953849232 L26.950446968181275,27.927920111923605 L26.75183630898198,28.13349469562292 L26.551561247096426,28.337318914838686 L26.349634242916018,28.539380088363735 L26.146067859610024,28.739665644681264 L25.940874762343995,28.93816312274694 L25.734067717491715,29.13486017276422 L25.525659591841006,29.32974455695268 L25.31566335179311,29.522804150309426 L25.104092062556056,29.71402694136349 L24.89095888733172,29.903401032923078 L24.676277086496906,30.09091464281581 L24.460060016778286,30.276556104621772 L24.242321130421452,30.460313868399343 L24.023073974353906,30.64217650140378 L23.802332189342263,30.822132688798558 L23.580109509143547,31.000171234359296 L23.356419759650755,31.176281061170386 L23.131276858032617,31.3504512123141 L22.90469481186774,31.522670851552373 L22.676687718273136,31.692929264000927 L22.4472697630271,31.861215856795937 L22.216455219686658,32.027520159753095 L21.984258448699496,32.19183182601897 L21.75069389651052,32.35414063271483 L21.515776094663043,32.514436481572645 L21.27951965889469,32.6727093995633 L21.04193928822806,32.82894953951721 L20.803049764056194,32.98314718073684 L20.56286594922294,33.13529272960159 L20.32140278709824,33.28537672016461 L20.07867530064841,33.43338981474179 L19.83469859150146,33.579322804492676 L19.589487839007656,33.72316660999336 " />
			<path d="M-19.589487839007514,-33.72316660999345 L-19.32926962852442,-33.87276102145689 L-19.06771084339493,-34.02000619958139 L-18.804829623935923,-34.16489193222981 L-18.54064420218123,-34.30740817090348 L-18.27517290061716,-34.44754503143916 L-18.00843413091179,-34.58529279469457 L-17.740446392637978,-34.72064190722238 L-17.47122827199034,-34.85358298193283 L-17.200798440496275,-34.98410679874481 L-16.929175653720904,-35.11220430522524 L-16.65637874996637,-35.237866617216945 L-16.382426648965282,-35.36108501945482 L-16.107338350568533,-35.48185096617021 L-15.831132933427593,-35.60015608168368 L-15.553829553671303,-35.71599216098586 L-15.275447443577308,-35.829351170306516 L-14.996005910238225,-35.94022524767172 L-14.715524334222582,-36.04860670344913 L-14.434022168230705,-36.15448802088126 L-14.15151893574558,-36.25786185660687 L-13.868034229678795,-36.35872104117022 L-13.583587711011699,-36.45705857951828 L-13.298199107431808,-36.55286765148594 L-13.011888211964601,-36.64614161226894 L-12.7246748816008,-36.736873992884796 L-12.436579035919152,-36.825058500621395 L-12.147620655704971,-36.91068901947343 L-11.857819781564327,-36.99375961056663 L-11.56719651253416,-37.07426451256958 L-11.275771004688336,-37.15219814209332 L-10.983563469739677,-37.22755509407858 L-10.69059417363824,-37.300330142170665 L-10.396883435165762,-37.370518239081896 L-10.102451624526434,-37.438114516941695 L-9.807319161934155,-37.50311428763413 L-9.511506516196311,-37.56551304312317 L-9.215034203294133,-37.62530645576522 L-8.917922784959822,-37.68249037860933 L-8.620192867250543,-37.737060845684795 L-8.321865099119242,-37.78901407227621 L-8.022960170982573,-37.838346455185956 L-7.723498813285914,-37.885054572984075 L-7.423501795065638,-37.92913518624564 L-7.122989922508635,-37.9705852377753 L-6.821984037509363,-38.009401852819444 L-6.520505016224318,-38.045582339265486 L-6.218573767624191,-38.07912418782859 L-5.916211232043771,-38.11002507222575 L-5.613438379729564,-38.13828284933708 L-5.310276209385471,-38.16389555935445 L-5.006745746716398,-38.186861425917435 L-4.702868042970048,-38.2071788562365 L-4.398664173476879,-38.22484644120346 L-4.094155236188479,-38.23986295548922 L-3.789362350214306,-38.252227357628755 L-3.4843066543569723,-38.26193879009333 L-3.1790093056461775,-38.26899657935 L-2.8734914778713705,-38.273400235908284 L-2.567774360113237,-38.27514945435413 L-2.261879155274171,-38.274244113371125 L-1.9558270786077099,-38.27068427574888 L-1.6496393562471923,-38.26447018837865 L-1.3433372237336254,-38.25560228223628 L-1.0369419245428766,-38.24408117235226 L-0.730474708612352,-38.22990765776907 L-0.42395683086723324,-38.213082721485804 L-0.11740954974633055,-38.19360753038995 L0.18914587427230245,-38.17148343517649 L0.49568818014584437,-38.146711970254195 L0.8021961077412811,-38.11929485363926 L1.108648399309896,-38.089233986836085 L1.4150238009615883,-38.056531454705436 L1.7213010641389346,-38.02118952531983 L2.0274589470908637,-37.983210649806274 L2.333476216345879,-37.94259746217621 L2.6393316481847062,-37.89935277914289 L2.945004030112237,-37.85347959992597 L3.250472162328718,-37.80498110604354 L3.555714859200087,-37.75386066109148 L3.8607109507272455,-37.70012181051011 L4.165439284014328,-37.643768281338396 L4.469878724735759,-37.58480398195536 L4.774008158601992,-37.52323300180912 L5.077806492823903,-37.45905961113317 L5.38125265757566,-37.39228826065029 L5.684325607456021,-37.32292358126384 L5.987004322947934,-37.250970383736565 L6.2892678118763214,-37.176433658357 L6.591095110864021,-37.09931857459332 L6.89246528678564,-37.01963048073483 L7.193357438219422,-36.937374903521054 L7.493750696896811,-36.85255754775841 L7.793624229149781,-36.765184295924534 L8.092957237355753,-36.675261207760364 L8.391728961380002,-36.58279451984982 L8.689918680015476,-36.487790645187275 L8.98750571241988,-36.39025617273279 L9.284469419550037,-36.290197866955154 L9.580789205593247,-36.187622667362696 L9.876444519395747,-36.08253768802206 L10.171414855888004,-35.97495021706474 L10.465679757506832,-35.864867716181664 L10.759218815614254,-35.75229782010569 L11.0520116719129,-35.63724833608207 L11.34403801985796,-35.51972724332699 L11.635277606065547,-35.39974269247421 L11.925710231717341,-35.27730300500975 L12.215315753961505,-35.152416672694734 L12.504074087309657,-35.0250923569765 L12.791965205029896,-34.89533888838785 L13.078969140535746,-34.763165265934624 L13.365065988770967,-34.62858065647158 L13.650235907590016,-34.49159439406661 L13.934459119134212,-34.35221597935342 L14.217715911203415,-34.21045507887257 L14.499986638623191,-34.06632152440109 L14.781251724607243,-33.91982531227057 L15.06149166211519,-33.770976602673905 L15.340687015205454,-33.619785718960614 L15.618818420383251,-33.46626314692086 L15.895866587943528,-33.310419534058234 L16.171812303308787,-33.15226568885128 L16.446636428361693,-32.99181258000391 L16.720319902772452,-32.829071335684624 L16.99284374532065,-32.66405324275477 L17.264189055211748,-32.49676974598571 L17.534337013387926,-32.32723244726509 L17.803268883833272,-32.155453104792194 L18.070966014873182,-31.981443632262447 L18.33740984046799,-31.80521609804117 L18.602581881500576,-31.62678272432656 L18.866463747057992,-31.44615588630203 L19.129037135706948,-31.263348111277924 L19.390283836763103,-31.078372077822706 L19.650185731554092,-30.891240614883642 L19.90872479467606,-30.701966700897046 L20.165883095243906,-30.510563462888143 L20.421642798134815,-30.317044175560703 L20.67598616522519,-30.12142226037632 L20.928895556620944,-29.92371128462362 L21.18035343188084,-29.72392496047727 L21.43034235123304,-29.52207714404699 L21.67884497678461,-29.31818183441657 L21.925844073724015,-29.11225317267298 L22.171322511516394,-28.90430544092556 L22.415263265091674,-28.694353061315596 L22.657649416025315,-28.482410595015974 L22.898464153711714,-28.26849274122135 L23.137690776530064,-28.05261433612868 L23.37531269300269,-27.834790351908254 L23.611313422945777,-27.615035895665322 L23.845676598612314,-27.393366208392344 L24.078385965827295,-27.169796663911928 L24.309425385115013,-26.944342767810614 L24.538778832818398,-26.7170201563635 L24.766430402210347,-26.487844595449744 L24.992364304596933,-26.25683197945917 L25.2165648704124,-26.02399833018993 L25.43901655030595,-25.789359795737248 L25.659703916220145,-25.552932649373556 L25.87861166246092,-25.314733288419816 L26.095724606759074,-25.074778233108308 L26.311027691323304,-24.833084125436876 L26.524505983884456,-24.589667728014717 L26.73614467873119,-24.344545922899833 L26.945929097736823,-24.097735710428168 L27.15384469137729,-23.84925420803454 L27.359877039740272,-23.599118649065538 L27.564011853525237,-23.347346381584202 L27.76623497503452,-23.093954867166943 L27.966532379155172,-22.838961679692463 L28.16489017433169,-22.582384504122935 L28.361294603529483,-22.324241135277454 L28.555732045188954,-22.06454947659791 L28.74818901417022,-21.80332753890727 L28.9386521626884,-21.540593439160467 L29.1271082812393,-21.2763653991879 L29.313544299515602,-21.010661744431662 L29.49794728731331,-20.743500902674583 L29.680304455428548,-20.474901402762182 L29.860603156544524,-20.204881873317607 L30.038830886108716,-19.933461041449654 L30.21497528320009,-19.660657731453934 L30.38902413138638,-19.386490863507372 L30.560965359571405,-19.110979452355945 L30.730787042832205,-18.834142605995947 L30.8984774032461,-18.55599952434878 L31.064024810707558,-18.27656949792932 L31.2274177837348,-17.995871906508032 L31.38864499026607,-17.713926217766925 L31.547695248445592,-17.430751985949342 L31.70455752739905,-17.14636885050379 L31.859220947998672,-16.860796534721867 L32.01167478361773,-16.57405484437036 L32.161908460874464,-16.28616366631759 L32.309911560365414,-15.997142967154218 L32.45567381738807,-15.70701279180843 L32.59918512265273,-15.41579326215573 L32.740435522983674,-15.123504575623413 L32.87941522200942,-14.830167003789779 L33.0161145808422,-14.53580089097819 L33.15052411874641,-14.240426652846084 L33.282634513796175,-13.944064774969112 L33.41243660352186,-13.6467358114203 L33.539921385545505,-13.348460383344559 L33.665080018205245,-13.049259177528526 L33.78790382116845,-12.749152944965815 L33.90838427603378,-12.448162499417856 L34.02651302692197,-12.146308715970346 L34.14228188105537,-11.843612529585492 L34.255682809326125,-11.540094933650051 L34.36670794685301,-11.235776978519336 L34.47534959352698,-10.930679770057315 L34.58160021454511,-10.624824468172774 L34.68545244093322,-10.318232285351787 L34.78689907005695,-10.010924485186596 L34.88593306612128,-9.702922380900773 L34.98254756065852,-9.394247333871135 L35.07673585300461,-9.084920752146209 L35.168491410763906,-8.774964088961465 L35.257807870262226,-8.464398841251452 L35.344679036988154,-8.153246548158885 L35.429098886022715,-7.8415287895408134 L35.511061562457186,-7.529267184471935 L35.590561381799176,-7.216483389745223 L35.6675928303669,-6.903199098369948 L35.742150565671515,-6.589436038067127 L35.814229416787725,-6.2752159697626375 L35.88382438471233,-5.960560686077981 L35.95093064271101,-5.645492009818872 L36.015543536653,-5.330031792461712 L36.07765858533394,-5.014201912638121 L36.137271480786644,-4.698024274617493 L36.19437808857987,-4.38152080678789 L36.24897444810505,-4.064713460135183 L36.301056772851034,-3.7476242067206513 L36.35062145066663,-3.4302750381571077 L36.397665044011184,-3.112687964083701 L36.44218429019293,-2.7948850106394225 L36.48417610159534,-2.476888218935514 L36.5236375658912,-2.1587196435267675 L36.560565946244644,-1.8404013508820416 L36.59495868150093,-1.5219554178536931 L36.6268133863641,-1.2034039301465942 L36.65612785156237,-0.8847689807863226 L36.6829000440014,-0.5660726685868607 L36.70712810690527,-0.2473370966180397 L36.72881035994527,0.07141562932746481 L36.74794529935642,0.39016340226729973 L36.764531598041756,0.7088841155626309 L36.77856810566444,1.0275556644512935 L36.79005384872744,1.34615594758092 L36.79898803064111,1.664662868541761 L36.80537003177845,1.9830543373991922 L36.80919940951802,2.3013082722256897 L36.81047589827469,2.6194026006321636 " />

       </g>

       <!-- solid lines -->
       <g  stroke="rgb(0,0,0)" fill="none">
			<path d="M19.589487839007518,33.72316660999345 L19.20556913885155,33.94278543437208 L18.81875815062692,34.15729260011568 L18.429113126645632,34.3666558032341 L18.03669274601507,34.570843514399044 L17.64155610580113,34.76982498369227 L17.243762712128405,34.96357024523642 L16.843372471218757,35.15205012170777 L16.440445680369756,35.33523622873019 L16.035043018874003,35.51310097914977 L15.627225538881117,35.685617587189356 L15.21705465620354,35.85276007248231 L14.804592141067463,36.01450326398516 L14.389900108810515,36.17082280376823 L13.973041010527393,36.32169515068378 L13.554077623664972,36.46709758391134 L13.133073042568235,36.60700820637928 L12.71009066897853,36.7414059480625 L12.285194202485467,36.87027056915546 L11.858447630934004,36.993582663120215 L11.429915220788118,37.11132365960899 L10.999661507452519,37.22347582726082 L10.567751285553827,37.33002227637176 L10.134249599182777,37.43094696143849 L9.69922173209879,37.526234683574664 L9.262733197898495,37.61587109279985 L8.824849730149602,37.69984269020049 L8.385637272491694,37.77813682996291 L7.945161968705351,37.85074172127766 L7.503490152751123,37.91764643011514 L7.060688338779899,37.97884088087232 L6.616823211116085,38.034315857889986 L6.171961614215283,38.084063006840665 L5.726170542597645,38.128074835986716 L5.279517130758785,38.16634471730854 L4.832068643059632,38.19886688750279 L4.383892463596585,38.22563644885025 L3.935056086053745,38.24664936995347 L3.4856271035386186,38.26190248634379 L3.0356731984028382,38.27139350095801 L2.58526213204947,38.275120984484246 L2.134461734728349,38.27308437557716 L1.6833398953211542,38.2652839809426 L1.2319645511175246,38.25172097529128 L0.780403677584026,38.232397401161954 L0.32872527812723007,38.20731616861384 L-0.12300262614730073,38.17648105478828 L-0.5747120066787801,38.13989670334 L-1.0263348376960053,38.09756862373777 L-1.477803106461831,38.04950319043467 L-1.9290488235156111,37.99570764190816 L-2.3800040329121703,37.93619007956998 L-2.8306008224557164,37.87095946654609 L-3.2807713339271682,37.800025626326885 L-3.730447773303352,37.723399241287765 L-4.179562420966562,37.64109185108047 L-4.628047641902793,37.55311585089522 L-5.075835895887456,37.459484489594054 L-5.522859747656604,37.360211867715556 L-5.969051877062411,37.25531293535144 L-6.414345089211432,37.14480348989508 L-6.858672324583832,37.02870017366246 L-7.301966669132328,36.907020471385955 L-7.744161364359204,36.77978270758114 L-8.185189817369867,36.64700604378725 L-8.624985610901527,36.50871047568144 L-9.063482513325383,36.364916830067585 L-9.500614488620847,36.21564676173979 L-9.936315706320324,36.06092275022131 L-10.370520551423063,35.90076809637913 L-10.803163634276551,35.73520691891505 L-11.234179800423872,35.56426415073339 L-11.663504140415782,35.38796553518629 L-12.091071999585882,35.206337622196756 L-12.516818987787339,35.0194077642604 L-12.94068098908971,34.82720411232625 L-13.36259417143466,34.629755611557314 L-13.782494996248875,34.42709199697154 L-14.20032022801269,34.2192437889638 L-14.616006943783043,34.006242288709714 L-15.029492542669535,33.788119573451745 L-15.440714755261917,33.5649084916685 L-15.849611653007601,33.336642658127815 L-16.256121657537793,33.103356448824634 L-16.660183549941053,32.86508499580398 L-17.061736479982656,32.62186418187026 L-17.460719975268404,32.37373063518337 L-17.85707395035145,32.12072172374276 L-18.250738715781026,31.862875549759877 L-18.641654987091496,31.600230943920064 L-19.02976389373034,31.332827459534865 L-19.415006987923753,31.060705366585452 L-19.797326253478772,30.78390564565811 L-20.1766641145203,30.50246998177263 L-20.552963444161815,30.21644075810478 L-20.926167573108387,29.92586104960357 L-21.296220298190907,29.63077461650427 L-21.663065890830175,29.33122589773828 L-22.026649105429332,29.0272600042408 L-22.386915187693596,28.718922712157337 L-22.743809882876107,28.40626045594994 L-23.09727944394857,28.08932032140432 L-23.447270639695265,27.76815003853891 L-23.793730762729464,27.44279797441698 L-24.136607637431,27.113313125862668 L-24.475849627803747,26.77974511208221 L-24.811405645251828,26.44214416719149 L-25.143225156273253,26.100561132651038 L-25.471258190070174,25.75504744960945 L-25.79545534607434,25.405655151156427 L-26.11576780138653,25.052436854486988 L-26.432147318129154,24.695445752977392 L-26.744546250710766,24.334735608174363 L-27.052917553001198,23.970360741698933 L-27.35721478541657,23.602376027065745 L-27.657392121913034,23.230836881419222 L-27.95340435688781,22.85579925718808 L-28.24520691198713,22.477319633659082 L-28.53275584281956,22.0954550084713 L-28.81600784557378,21.710262889032713 L-29.094920263540047,21.32180128385969 L-29.369451093534153,20.930128693841066 L-29.639558992222916,20.535304103428185 L-29.905203282350328,20.13738697175211 L-30.16634395886338,19.736437223669256 L-30.422941694936753,19.33251524073683 L-30.674957847895268,18.925681852119705 L-30.922354465033248,18.515998325429777 L-31.165094289330142,18.103526357499266 L-31.403140765061277,17.688328065089316 L-31.636458043303055,17.270465975535522 L-31.865010987331544,16.850003017331577 L-32.08876517791405,16.427002510652436 L-32.30768691849251,16.00152815781845 L-32.52174324025807,15.573644033702113 L-32.73090190711603,15.14341457607867 L-32.93513142054047,14.710904575921951 L-33.134401024317924,14.276179167647062 L-33.32868070917903,13.839303819301408 L-33.517941217317855,13.400344322705525 L-33.70215404679802,12.959366783545015 L-33.88129145584501,12.516437611415169 L-34.05532646702394,12.071623509820121 L-34.224232871302256,11.624991466127444 L-34.38798523199679,11.176608741480019 L-34.546558888604324,10.726542860666921 L-34.69992996051547,10.274861601954369 L-34.848075350610934,9.821632986878434 L-34.9909727487399,9.366925270001488 L-35.128600635079806,8.910806928633166 L-35.26093828337723,8.453346652517887 L-35.387965764069094,7.994613333490593 L-35.509663947284054,7.534676055101803 L-35.626014505723354,7.0736040822138335 L-35.73699991742089,6.61146685056981 L-35.842603468381874,6.148333956336977 L-35.942809255099974,5.6842751456256995 L-36.03760218695229,5.2193603039859 L-36.12696798847199,4.7536594458826045 L-36.210893201498045,4.28724270415209 L-36.289365187202094,3.820180319440082 L-36.36237212799171,3.3525426296237004 L-36.42990302929019,2.8844000592188745 L-36.49194772119216,2.4158231087747915 L-36.548496859995254,1.9468823442566627 L-36.59954192960716,1.4776483864186787 L-36.64507524282818,1.0081919001688835 L-36.685089942508796,0.5385835839273447 L-36.71958000258245,0.06889415897916962 L-36.74854022897293,-0.40080564117593553 L-36.77196626037669,-0.8704450814757987 L-36.78985456891956,-1.339953435948134 L-36.80220246068807,-1.8092599983617212 L-36.809008076135136,-2.2782940928745337 L-36.81027039036011,-2.7469850846772186 L-36.80598921326311,-3.215262390630354 L-36.79616518957367,-3.683055489894093 L-36.780799798753606,-4.150293934548397 L-36.759895354774265,-4.616907360202173 L-36.73345500576802,-5.082825496589821 L-36.701482733554165,-5.547978178153748 L-36.663983353039306,-6.012295354611121 L-36.62096251149221,-6.475707101503078 L-36.572426687693365,-6.938143630725072 L-36.51838319095931,-7.399535301036746 L-36.45884016004187,-7.859812628549708 L-36.39380656190249,-8.31890629719151 L-36.32329219036181,-8.7767471691443 L-36.24730766462484,-9.233266295256792 L-36.165864427681655,-9.68839492542788 L-36.078974744584166,-10.14206451895991 L-35.98665170059904,-10.594206754880794 L-35.88890919923711,-11.044753542232987 L-35.785761960159554,-11.493637030327516 L-35.67722551696119,-11.940789618962164 L-35.56331621483111,-12.386143968601901 L-35.44405120809123,-12.82963301051979 L-35.31944845761289,-13.271189956897361 L-35.189526728111964,-13.710748310882721 L-35.054305585323036,-14.148241876604565 L-34.91380539305284,-14.583604769141088 L-34.768047310113516,-15.016771424442087 L-34.61705328713621,-15.447676609202624 L-34.46084606326539,-15.87625543068683 L-34.29944916273441,-16.302443346500606 L-34.132886891322805,-16.726176174311497 L-33.961184332695986,-17.147390101514276 L-33.78436734462771,-17.56602169484083 L-33.60246255510602,-17.982007909913015 L-33.41549735832311,-18.395286100736996 L-33.22349991054987,-18.805794029137402 L-33.02649912589574,-19.21346987413018 L-32.82452467195428,-19.618252241232575 L-32.61760696533531,-20.02008017170904 L-32.40577716708434,-20.41889315175132 L-32.18906717798982,-20.814631121591542 L-31.967509633779002,-21.20723448454705 L-31.741137900203086,-21.596644115995527 L-31.509986068012452,-21.982801372278857 L-31.27408894782282,-22.365648099534628 L-31.0334820648728,-22.7451266424539 L-30.788201653673934,-23.121179852963966 L-30.538284652553912,-23.493751098834586 L-30.283768698093848,-23.86278427220653 L-30.024692119460326,-24.22822379804127 L-29.761093932633116,-24.590014642490445 L-29.49301383452954,-24.94810232118366 L-29.22049219702631,-25.302432907433648 L-28.94357006087965,-25.652953040357403 L-28.66228912954464,-25.99960993291226 L-28.376691762894875,-26.342351379845326 L-28.086820970843306,-26.68112576555537 L-27.792720406864987,-27.015882071865995 L-27.494434361423053,-27.346569885708814 L-27.192007755298754,-27.673139406715464 L-26.885486132826568,-27.995541454717273 L-26.57491565503539,-28.313727477151666 L-26.260343092696765,-28.627649556374102 L-25.94181581928151,-28.937260416874114 L-25.61938180382539,-29.24251343239493 L-25.293089603705088,-29.543362632955272 L-24.962988357325763,-29.839762711772124 L-24.62912777672093,-30.13166903208382 L-24.291558140065955,-30.41903763387231 L-23.95033028410646,-30.701825240483146 L-23.605495596502443,-30.979989265142933 L-23.2571060080894,-31.25348781737277 L-22.905213985057898,-31.52227970929666 L-22.549872521052276,-31.78632446184438 L-22.191135129189927,-32.045582310847436 L-21.82905583400251,-32.30001421302741 L-21.463689163300067,-32.54958185187569 L-21.095090139959318,-32.794247643423844 L-20.723314273637325,-33.033974741903606 L-20.348417552412037,-33.26872704529577 L-19.970456434350712,-33.4984692007669 L-19.5894878390078,-33.723166609993285 " />
			<path d="M45.72993736593355,-2.561833312706306 L45.728792258467664,-2.2607203884223184 L45.72535700731443,-1.9597891680718016 L45.7196318262028,-1.6590583745089829 L45.71161707133287,-1.3585467181182578 L45.70131324135373,-1.0582728956500995 L45.68872097733252,-0.7582555890578204 L45.673841062714445,-0.4585134643352218 L45.65667442327407,-0.15906517035529522 L45.637222127057726,0.1400706622900474 L45.61548538431708,0.4388754224491356 L45.5914655474338,0.7373305195684106 L45.565164110835426,1.0354173848490964 L45.536582710902394,1.3331174724024626 L45.50572312586624,1.6304122604037117 L45.47258727569894,1.9272832522443233 L45.437177221993494,2.223711977682796 L45.39949516783561,2.519679993993898 L45.35954345766666,2.8151688871160614 L45.31732457713787,3.1101602727969757 L45.27284115295555,3.4046357977375097 L45.226095952717785,3.69857714073349 L45.1770918847422,3.991966013815632 L45.125831997885,4.284784163387326 L45.072319481351315,4.577013371360333 L45.016557664496744,4.868635456288206 L44.95855001662025,5.1596322744975245 L44.8983001467483,5.449985721216701 L44.835811803410294,5.739677731702414 L44.771088874405365,6.028690282363484 L44.70413538656055,6.317005391882295 L44.634955505480164,6.604605122333489 L44.56355353528667,6.891471580300027 L44.48993391835292,7.177586917986411 L44.414101235025726,7.4629333343291675 L44.33606020334089,7.747493076104301 L44.25581567872972,8.031248439031891 L44.17337265371684,8.314181768877557 L44.08873625760967,8.596275462550846 L44.001911756179254,8.877511969200462 L43.91290455133266,9.157873791306134 L43.82172018077688,9.43734348576736 L43.72836431767428,9.715903664988595 L43.63284277028967,9.993536997961005 L43.53516148162892,10.270226211340834 L43.43532652906919,10.54595409052401 L43.33334412398084,10.820703480717224 L43.22922061134099,11.094457288005206 L43.122962469338745,11.367198480414256 L43.014576308972096,11.638910088971944 L42.9040688736367,11.909575208762785 L42.79144703870628,12.179176999980097 L42.67671781110485,12.447698688973627 L42.55988832887083,12.715123569293201 L42.44096586071285,12.98143500272812 L42.31995780555759,13.246616420342324 L42.19687169208943,13.510651323505254 L42.07171517828205,13.773523284918369 L41.94449605092191,14.03521594963713 L41.81522222512393,14.2957130360886 L41.68390174383886,14.554998337084402 L41.550542777353,14.813055720829087 L41.41515362277988,15.06986913192377 L41.27774270354392,15.325422592365065 L41.13831856885655,15.57970020253914 L40.99688989318409,15.832686142211006 L40.85346547570822,16.08436467150872 L40.70805423977846,16.33472013190268 L40.560665232357024,16.583736947179897 L40.4113076234559,16.831399624413017 L40.25999070556634,17.077692754924275 L40.10672389308077,17.322601015244175 L39.951516721706994,17.56610916806481 L39.79437884787496,17.808202063187938 L39.635320048135924,18.04886463846754 L39.474350218554235,18.288081920746915 L39.31147937409163,18.52583902679029 L39.14671764798412,18.762121164208786 L38.98007529111154,18.99691363238074 L38.811562671359795,19.230201823366347 L38.64119027297576,19.461971222816484 L38.468968695915095,19.69220741087575 L38.294908655182624,19.920896063079645 L38.11902098016574,20.148022951245746 L37.94131661396068,20.37357394435895 L37.76180661269163,20.597535009450663 L37.58050214482286,20.81989221247187 L37.39741449046389,21.040631719160086 L37.21255504066768,21.259739795899993 L37.02593529672188,21.477202810578007 L36.8375668694333,21.693007233430386 L36.64746147840552,21.9071396378849 L36.4556309513097,22.11958670139635 L36.2620872231488,22.33033520627533 L36.066842335514906,22.539372040510624 L35.869908435840145,22.746684198584997 L35.67129777664084,22.952258782284314 L35.47102271475529,23.15608300150008 L35.26909571057489,23.358144175025128 L35.06552932726889,23.558429731342656 L34.86033623000286,23.75692720940833 L34.65352918515058,23.953624259425613 L34.44512105949987,24.148508643614072 L34.235124819451975,24.34156823697082 L34.023553530214926,24.53279102802488 L33.81042035499058,24.72216511958447 L33.59573855415577,24.909678729477204 L33.37952148443715,25.095320191283164 L33.16178259808032,25.279077955060735 L32.94253544201277,25.460940588065174 L32.72179365700113,25.64089677545995 L32.49957097680242,25.81893532102069 L32.275881227309625,25.995045147831778 L32.05073832569148,26.16921529897549 L31.824156279526605,26.341434938213766 L31.596149185932003,26.51169335066232 L31.366731230685968,26.67997994345733 L31.135916687345524,26.846284246414488 L30.903719916358362,27.010595912680362 L30.670155364169386,27.172904719376223 L30.43523756232191,27.333200568234037 L30.198981126553555,27.491473486224695 L29.961400755886928,27.647713626178604 L29.72251123171506,27.801911267398236 L29.482327416881805,27.95405681626298 L29.240864254757106,28.104140806826 L28.998136768307276,28.25215390140318 L28.754160059160327,28.39808689115407 L28.508949306666523,28.541930696654756 " />
			<path d="M28.508949306666384,28.54193069665484 L28.125030606510418,28.76154952103347 L27.738219618285786,28.976056686777074 L27.348574594304498,29.185419889895496 L26.956154213673937,29.389607601060437 L26.561017573459996,29.58858907035366 L26.16322417978727,29.78233433189781 L25.762833938877623,29.97081420836916 L25.359907148028622,30.15400031539158 L24.95450448653287,30.33186506581116 L24.546687006539983,30.504381673850748 L24.136516123862407,30.671524159143704 L23.72405360872633,30.833267350646555 L23.30936157646938,30.989586890429624 L22.89250247818626,31.140459237345173 L22.473539091323836,31.285861670572732 L22.0525345102271,31.42577229304067 L21.629552136637397,31.560170034723892 L21.204655670144334,31.68903465581685 L20.777909098592872,31.812346749781607 L20.349376688446984,31.930087746270384 L19.919122975111385,32.04223991392221 L19.487212753212695,32.148786363033146 L19.053711066841643,32.249711048099876 L18.618683199757655,32.34499877023605 L18.18219466555736,32.43463517946124 L17.744311197808468,32.51860677686188 L17.305098740150562,32.5969009166243 L16.86462343636422,32.669505807939046 L16.42295162040999,32.73641051677653 L15.980149806438765,32.79760496753371 L15.536284678774951,32.853079944551375 L15.091423081874149,32.902827093502054 L14.645632010256511,32.946838922648105 L14.198978598417652,32.98510880396993 L13.751530110718498,33.01763097416418 L13.303353931255451,33.04440053551164 L12.854517553712611,33.065413456614856 L12.405088571197485,33.08066657300518 L11.955134666061705,33.0901575876194 L11.504723599708337,33.093885071145635 L11.053923202387216,33.09184846223855 L10.60280136298002,33.08404806760399 L10.151426018776391,33.07048506195267 L9.699865145242892,33.05116148782334 L9.248186745786096,33.02608025527523 L8.796458841511566,32.99524514144967 L8.344749460980086,32.95866079000139 L7.893126629962861,32.91633271039916 L7.441658361197035,32.86826727709606 L6.990412644143255,32.81447172856955 L6.539457434746696,32.75495416623137 L6.08886064520315,32.68972355320748 L5.638690133731698,32.618789712988274 L5.1890136943555145,32.542163327949154 L4.7398990466923046,32.45985593774186 L4.291413825756074,32.371879937556606 L3.84362557177141,32.27824857625544 L3.3966017200022627,32.178975954376945 L2.950409590596456,32.07407702201283 L2.5051163784474344,31.963567576556475 L2.0607891430750342,31.84746426032385 L1.617494798526538,31.725784558047348 L1.1753001032996622,31.598546794242534 L0.7342716502889992,31.465770130448643 L0.2944758567573391,31.327474562342832 L-0.1440210456665163,31.183680916728978 L-0.5811530209619811,31.034410848401183 L-1.0168542386614572,30.8796868368827 L-1.4510590837641963,30.719532183040524 L-1.8837021666176845,30.55397100557644 L-2.314718332765006,30.383028237394786 L-2.7440426727569154,30.206729621847682 L-3.1716105319270156,30.02510170885815 L-3.5973575201284724,29.838171850921793 L-4.021219521430844,29.645968198987642 L-4.4431327037757935,29.448519698218707 L-4.863033528590009,29.245856083632933 L-5.280858760353823,29.038007875625194 L-5.696545476124177,28.825006375371107 L-6.110031075010669,28.606883660113137 L-6.5212532876030505,28.38367257832989 L-6.930150185348735,28.155406744789207 L-7.336660189878927,27.922120535486027 L-7.740722082282186,27.683849082465375 L-8.14227501232379,27.44062826853165 L-8.541258507609538,27.192494721844763 L-8.937612482692582,26.939485810404154 L-9.33127724812216,26.68163963642127 L-9.72219351943263,26.418995030581456 L-10.110302426071474,26.151591546196258 L-10.495545520264887,25.879469453246845 L-10.877864785819906,25.6026697323195 L-11.257202646861433,25.321234068434023 L-11.633501976502949,25.035204844766174 L-12.00670610544952,24.74462513626496 L-12.37675883053204,24.44953870316566 L-12.743604423171309,24.14998998439967 L-13.107187637770465,23.846024090902194 L-13.46745372003473,23.53768679881873 L-13.82434841521724,23.225024542611333 L-14.177817976289703,22.90808440806571 L-14.527809172036399,22.586914125200302 L-14.874269295070597,22.261562061078372 L-15.217146169772132,21.93207721252406 L-15.55638816014488,21.598509198743603 L-15.891944177592961,21.260908253852882 L-16.223763688614387,20.91932521931243 L-16.551796722411307,20.573811536270842 L-16.875993878415475,20.22441923781782 L-17.196306333727662,19.87120094114838 L-17.512685850470287,19.514209839638784 L-17.8250847830519,19.153499694835755 L-18.13345608534233,18.789124828360325 L-18.437753317757704,18.421140113727137 L-18.737930654254168,18.049600968080615 L-19.033942889228943,17.674563343849474 L-19.325745444328263,17.296083720320475 L-19.613294375160695,16.914219095132694 L-19.896546377914913,16.529026975694105 L-20.17545879588118,16.14056537052108 L-20.449989625875286,15.748892780502459 L-20.72009752456405,15.354068190089578 L-20.985741814691462,14.956151058413504 L-21.246882491204513,14.555201310330649 L-21.503480227277887,14.151279327398221 L-21.7554963802364,13.744445938781098 L-22.00289299737438,13.33476241209117 L-22.245632821671276,12.922290444160659 L-22.48367929740241,12.507092151750708 L-22.71699657564419,12.089230062196915 L-22.945549519672678,11.66876710399297 L-23.169303710255182,11.245766597313828 L-23.38822545083364,10.820292244479841 L-23.602281772599202,10.392408120363505 L-23.81144043945716,9.962178662740062 L-24.015669952881606,9.529668662583344 L-24.214939556659058,9.094943254308454 L-24.409219241520166,8.658067905962799 L-24.59847974965899,8.219108409366918 L-24.782692579139155,7.7781308702064065 L-24.961829988186143,7.335201698076561 L-25.135864999365072,6.890387596481513 L-25.30477140364339,6.4437555527888355 L-25.46852376433792,5.99537282814141 L-25.627097420945457,5.545306947328313 L-25.780468492856603,5.09362568861576 L-25.928613882952067,4.640397073539826 L-26.071511281081033,4.18568935666288 L-26.20913916742094,3.7295710152945576 L-26.341476815718362,3.2721107391792783 L-26.468504296410227,2.8133774201519843 L-26.590202479625187,2.353440141763195 L-26.706553038064488,1.8923681688752252 L-26.817538449762022,1.4302309372312019 L-26.923142000723008,0.9670980429983684 L-27.023347787441107,0.5030392322870911 L-27.118140719293425,0.03812439064729123 L-27.207506520813123,-0.42757646745600386 L-27.29143173383918,-0.8939932091865179 L-27.369903719543228,-1.3610555938985263 L-27.442910660332846,-1.828693283714908 L-27.51044156163132,-2.296835854119734 L-27.572486253533295,-2.765412804563817 L-27.629035392336387,-3.2343535690819456 L-27.680080461948297,-3.7035875269199297 L-27.72561377516931,-4.173044013169725 L-27.76562847484993,-4.642652329411264 L-27.80011853492358,-5.112341754359439 L-27.82907876131406,-5.582041554514544 L-27.852504792717827,-6.051680994814407 L-27.870393101260692,-6.521189349286742 L-27.882740993029206,-6.99049591170033 L-27.88954660847627,-7.459530006213142 L-27.890808922701243,-7.928220998015827 L-27.886527745604244,-8.396498303968961 L-27.876703721914804,-8.864291403232702 L-27.86133833109474,-9.331529847887005 L-27.8404338871154,-9.79814327354078 L-27.813993538109155,-10.26406140992843 L-27.7820212658953,-10.729214091492356 L-27.74452188538044,-11.19353126794973 L-27.701501043833343,-11.656943014841687 L-27.6529652200345,-12.11937954406368 L-27.598921723300446,-12.580771214375353 L-27.539378692383007,-13.041048541888316 L-27.47434509424362,-13.500142210530118 L-27.403830722702946,-13.957983082482908 L-27.327846196965975,-14.414502208595401 L-27.246402960022788,-14.86963083876649 L-27.1595132769253,-15.323300432298517 L-27.067190232940174,-15.775442668219402 L-26.969447731578246,-16.225989455571597 L-26.866300492500688,-16.674872943666124 L-26.75776404930232,-17.12202553230077 L-26.643854747172245,-17.56737988194051 L-26.524589740432365,-18.0108689238584 L-26.399986989954026,-18.45242587023597 L-26.270065260453098,-18.89198422422133 L-26.13484411766417,-19.329477789943173 L-25.994343925393974,-19.764840682479697 L-25.84858584245465,-20.198007337780695 L-25.697591819477342,-20.62891252254123 L-25.541384595606527,-21.05749134402544 L-25.379987695075545,-21.483679259839214 L-25.21342542366394,-21.907412087650105 L-25.04172286503712,-22.328626014852883 L-24.864905876968844,-22.74725760817944 L-24.683001087447156,-23.163243823251623 L-24.496035890664242,-23.576522014075604 L-24.304038442891002,-23.98702994247601 L-24.107037658236873,-24.394705787468787 L-23.905063204295413,-24.799488154571183 L-23.698145497676446,-25.201316085047647 L-23.48631569942547,-25.600129065089927 L-23.269605710330953,-25.99586703493015 L-23.048048166120136,-26.38847039788566 L-22.82167643254422,-26.777880029334135 L-22.590524600353586,-27.164037285617464 L-22.354627480163952,-27.546884012873235 L-22.114020597213933,-27.926362555792508 L-21.868740186015067,-28.302415766302573 L-21.618823184895046,-28.674987012173194 L-21.36430723043498,-29.044020185545136 L-21.10523065180146,-29.409459711379878 L-20.84163246497425,-29.771250555829052 L-20.573552366870672,-30.12933823452227 L-20.301030729367444,-30.483668820772255 L-20.024108593220785,-30.83418895369601 L-19.742827661885773,-31.180845846250868 L-19.45723029523601,-31.523587293183933 L-19.16735950318444,-31.86236167889398 L-18.87325893920612,-32.197117985204606 L-18.574972893764187,-32.52780579904742 L-18.272546287639887,-32.854375320054075 L-17.9660246651677,-33.17677736805588 L-17.655454187376524,-33.49496339049028 L-17.3408816250379,-33.80888546971271 L-17.022354351622642,-34.11849633021272 L-16.699920336166524,-34.42374934573354 L-16.37362813604622,-34.72459854629388 L-16.043526889666897,-35.020998625110735 L-15.709666309062065,-35.31290494542243 L-15.372096672407089,-35.60027354721092 L-15.030868816447594,-35.88306115382176 L-14.686034128843577,-36.161225178481544 L-14.337644540430535,-36.434723730711376 L-13.985752517399032,-36.70351562263527 L-13.63041105339341,-36.96756037518299 L-13.27167366153106,-37.22681822418605 L-12.909594366343644,-37.48125012636602 L-12.5442276956412,-37.730817765214304 L-12.175628672300451,-37.975483556762455 L-11.803852805978458,-38.21521065524222 L-11.428956084753171,-38.44996295863438 L-11.050994966691846,-38.67970511410551 L-10.670026371348932,-38.904402523331896 " />
			<path d="M-10.670026371348648,-38.90440252333206 L-10.409808160865552,-39.0539969347955 L-10.148249375736064,-39.20124211292 L-9.885368156277057,-39.34612784556842 L-9.621182734522364,-39.48864408424209 L-9.355711432958294,-39.62878094477777 L-9.088972663252925,-39.76652870803318 L-8.820984924979111,-39.90187782056099 L-8.551766804331475,-40.03481889527144 L-8.281336972837408,-40.16534271208342 L-8.009714186062038,-40.29344021856385 L-7.736917282307502,-40.419102530555556 L-7.462965181306416,-40.54232093279343 L-7.187876882909666,-40.66308687950882 L-6.911671465768727,-40.78139199502229 L-6.6343680860124365,-40.897228074324474 L-6.355985975918442,-41.01058708364513 L-6.076544442579358,-41.12146116101033 L-5.796062866563716,-41.22984261678774 L-5.514560700571838,-41.33572393421987 L-5.232057468086714,-41.439097769945484 L-4.9485727620199285,-41.53995695450883 L-4.6641262433528325,-41.63829449285689 L-4.378737639772941,-41.73410356482455 L-4.092426744305735,-41.82737752560755 L-3.8052134139419334,-41.91810990622341 L-3.5171175682602858,-42.006294413960006 L-3.2281591880461047,-42.09192493281204 L-2.9383583139054608,-42.17499552390524 L-2.6477350448752937,-42.25550042590819 L-2.3563095370294693,-42.33343405543193 L-2.0641020020808103,-42.40879100741719 L-1.7711327059793742,-42.481566055509276 L-1.4774219675068956,-42.55175415242051 L-1.182990156867568,-42.619350430280306 L-0.8878576942752883,-42.684350200972744 L-0.5920450485374449,-42.74674895646178 L-0.2955727356352664,-42.80654236910383 L0.0015386826990440028,-42.86372629194794 L0.2992686004083236,-42.918296759023406 L0.5975963685396248,-42.97024998561482 L0.8965012966762931,-43.01958236852457 L1.195962654372952,-43.066290486322686 L1.4959596725932283,-43.11037109958425 L1.796471545150231,-43.151821151113914 L2.097477430149503,-43.190637766158055 L2.3989564514345485,-43.2268182526041 L2.7008877000346754,-43.2603601011672 L3.003250235615095,-43.291260985564364 L3.3060230879293027,-43.31951876267569 L3.6091852582733956,-43.34513147269306 L3.9127157209424688,-43.368097339256046 L4.216593424688819,-43.388414769575114 L4.520797294181987,-43.40608235454207 L4.825306231470387,-43.42109886882783 L5.13009911744456,-43.433463270967366 L5.435154813301894,-43.44317470343194 L5.740452162012689,-43.45023249268861 L6.045969989787496,-43.454636149246895 L6.351687107545629,-43.45638536769274 L6.6575823123846956,-43.455480026709736 L6.9636343890511565,-43.45192018908749 L7.269822111411674,-43.44570610171726 L7.576124243925241,-43.43683819557489 L7.88251954311599,-43.42531708569087 L8.188986759046514,-43.41114357110768 L8.495504636791633,-43.394318634824415 L8.802051917912536,-43.37484344372856 L9.108607341931169,-43.3527193485151 L9.41514964780471,-43.327947883592806 L9.721657575400148,-43.30053076697787 L10.028109866968762,-43.270469900174696 L10.334485268620455,-43.23776736804405 L10.640762531797801,-43.202425438658445 L10.94692041474973,-43.164446563144885 L11.252937684004745,-43.12383337551482 L11.558793115843573,-43.0805886924815 L11.864465497771103,-43.03471551326458 L12.169933629987584,-42.98621701938215 L12.475176326858954,-42.93509657443009 L12.780172418386112,-42.88135772384872 L13.084900751673194,-42.82500419467701 L13.389340192394625,-42.76603989529397 L13.693469626260859,-42.70446891514773 L13.99726796048277,-42.64029552447178 L14.300714125234526,-42.5735241739889 L14.603787075114887,-42.50415949460245 L14.9064657906068,-42.432206297075176 L15.208729279535188,-42.35766957169561 L15.510556578522888,-42.28055448793193 L15.811926754444507,-42.200866394073444 L16.11281890587829,-42.118610816859665 L16.413212164555677,-42.03379346109702 L16.713085696808648,-41.946420209263145 L17.012418705014618,-41.856497121098975 L17.311190429038867,-41.76403043318843 L17.609380147674344,-41.669026558525886 L17.906967180078745,-41.5714920860714 L18.203930887208905,-41.471433780293765 L18.50025067325211,-41.36885858070131 L18.795905987054613,-41.26377360136067 L19.090876323546873,-41.15618613040335 L19.385141225165697,-41.046103629520275 L19.67868028327312,-40.9335337334443 L19.971473139571767,-40.81848424942068 L20.263499487516825,-40.7009631566656 L20.554739073724413,-40.580978605812824 L20.84517169937621,-40.45853891834836 L21.13477722162037,-40.333652586033345 L21.423535554968524,-40.20632827031511 L21.711426672688763,-40.07657480172646 L21.99843060819461,-39.944401179273235 L22.284527456429835,-39.80981656981019 L22.569697375248882,-39.67283030740522 L22.85392058679308,-39.53345189269203 L23.137177378862283,-39.39169099221118 L23.419448106282058,-39.2475574377397 L23.700713192266107,-39.10106122560918 L23.980953129774058,-38.952212516012516 L24.26014848286432,-38.801021632299225 L24.53827988804212,-38.64749906025947 L24.815328055602393,-38.491655447396845 L25.091273770967653,-38.33350160218989 L25.36609789602056,-38.17304849334252 L25.63978137043132,-38.010307249023235 L25.912305212979515,-37.84528915609338 L26.183650522870614,-37.67800565932432 L26.453798481046793,-37.5084683606037 L26.72273035149214,-37.336689018130805 L26.99042748253205,-37.16267954560106 L27.256871308126858,-36.98645201137978 L27.522043349159443,-36.80801863766517 L27.78592521471686,-36.62739179964064 L28.048498603365815,-36.44458402461653 L28.30974530442197,-36.25960799116132 L28.56964719921296,-36.07247652822225 L28.828186262334928,-35.88320261423566 L29.085344562902772,-35.691799376226754 L29.341104265793682,-35.498280088899314 L29.595447632884056,-35.30265817371493 L29.84835702427981,-35.10494719796223 L30.099814899539705,-34.90516087381588 L30.349803818891907,-34.7033130573856 L30.598306444443477,-34.49941774775518 L30.84530554138288,-34.29348908601159 L31.09078397917526,-34.08554135426417 L31.33472473275054,-33.87558897465421 L31.57711088368418,-33.66364650835458 L31.81792562137058,-33.44972865455996 L32.05715224418893,-33.23385024946729 L32.29477416066156,-33.016026265246865 L32.53077489060465,-32.79627180900393 L32.76513806627118,-32.574602121730955 L32.99784743348616,-32.351032577250535 L33.22888685277388,-32.12557868114922 L33.458240300477264,-31.898256069702107 L33.68589186986921,-31.66908050878835 L33.911825772255796,-31.43806789279778 L34.13602633807127,-31.205234243528537 L34.35847801796481,-30.970595709075855 L34.579165383879015,-30.734168562712163 L34.79807313011979,-30.495969201758424 L35.01518607441794,-30.256014146446915 L35.23048915898217,-30.014320038775484 L35.44396745154332,-29.770903641353325 L35.655606146390056,-29.52578183623844 L35.865390565395685,-29.278971623766775 L36.07330615903616,-29.03049012137315 L36.27933850739914,-28.780354562404145 L36.48347332118411,-28.52858229492281 L36.685696442693384,-28.27519078050555 L36.88599384681404,-28.02019759303107 L37.08435164199055,-27.763620417461542 L37.28075607118835,-27.50547704861606 L37.475193512847824,-27.24578538993652 L37.667650481829085,-26.984563452245876 L37.85811363034726,-26.721829352499075 L38.046569748898165,-26.457601312526506 L38.23300576717447,-26.19189765777027 L38.41740875497217,-25.92473681601319 L38.59976592308742,-25.65613731610079 L38.78006462420339,-25.386117786656214 L38.95829235376758,-25.11469695478826 L39.13443675085895,-24.841893644792542 L39.30848559904524,-24.56772677684598 L39.480426827230275,-24.292215365694553 L39.65024851049107,-24.015378519334554 L39.81793887090497,-23.73723543768739 L39.98348627836643,-23.457805411267927 L40.14687925139367,-23.17710781984664 L40.308106457924936,-22.895162131105533 L40.467156716104455,-22.61198789928795 L40.62401899505792,-22.3276047638424 L40.77868241565754,-22.042032448060475 L40.9311362512766,-21.755290757708966 L41.081369928533334,-21.4673995796562 L41.229373028024284,-21.178378880492826 L41.37513528504694,-20.88824870514704 L41.51864659031159,-20.597029175494338 L41.65989699064254,-20.30474048896202 L41.79887668966829,-20.011402917128386 L41.93557604850106,-19.7170368043168 L42.06998558640528,-19.421662566184693 L42.202095981455045,-19.12530068830772 L42.33189807118073,-18.827971724758907 L42.459382853204374,-18.529696296683166 L42.58454148586411,-18.230495090867134 L42.70736528882732,-17.930388858304422 L42.82784574369265,-17.629398412756466 L42.94597449458084,-17.327544629308953 L43.06174334871423,-17.0248484429241 L43.175144276984994,-16.72133084698866 L43.286169414511875,-16.417012891857944 L43.39481106118585,-16.111915683395925 L43.50106168220398,-15.806060381511383 L43.60491390859208,-15.499468198690394 L43.70636053771581,-15.192160398525203 L43.805394533780145,-14.88415829423938 L43.90200902831738,-14.575483247209743 L43.99619732066347,-14.266156665484818 L44.08795287842277,-13.956200002300072 L44.17726933792109,-13.64563475459006 L44.26414050464702,-13.334482461497494 L44.34856035368158,-13.022764702879421 L44.43052303011605,-12.710503097810545 L44.51002284945804,-12.397719303083832 L44.58705429802576,-12.084435011708557 L44.661612033330385,-11.770671951405735 L44.73369088444659,-11.456451883101245 L44.80328585237119,-11.14179659941659 L44.87039211036988,-10.826727923157481 L44.93500500431186,-10.511267705800321 L44.99712005299281,-10.195437825976729 L45.056732948445514,-9.879260187956103 L45.11383955623873,-9.562756720126497 L45.16843591576392,-9.245949373473792 L45.220518240509904,-8.928860120059259 L45.2700829183255,-8.611510951495717 L45.317126511670054,-8.293923877422309 L45.36164575785179,-7.976120923978031 L45.4036375692542,-7.658124132274122 L45.44309903355007,-7.339955556865376 L45.480027413903514,-7.02163726422065 L45.51442014915979,-6.7031913311923015 L45.54627485402297,-6.3846398434852025 L45.57558931922124,-6.066004894124931 L45.60236151166026,-5.747308581925469 L45.626589574564136,-5.428573009956648 L45.648271827604134,-5.1098202840111435 L45.66740676701528,-4.791072511071309 L45.68399306570062,-4.4723517977759775 L45.69802957332331,-4.153680248887315 L45.7095153163863,-3.8350799657576884 L45.718449498299975,-3.5165730447968473 L45.724831499437315,-3.198181575939416 L45.72866087717689,-2.8799276411129187 L45.72993736593355,-2.5618333127064448 " />
			<path d="M28.50894930666638,28.541930696654838 L19.589487839007514,33.72316660999345 " />
			<path d="M-10.670026371348648,-38.90440252333206 L-19.589487839007514,-33.72316660999345 " />

       </g>
    </g>
    <g transform="translate(20,210.0)" stroke="rgb(0,0,255)">
        <line x1="30" y1="-30" x2="75" y2="-33" stroke-width="3" stroke="#000000" />
         <text x="80" y="-30" style="stroke:#000000">X </text>

        <line x1="30" y1="-30" x2="30" y2="-75" stroke-width="3" stroke="#000000" />
         <text x="25" y="-85" style="stroke:#000000">Y </text>

        <line x1="30" y1="-30" x2="58" y2="-15" stroke-width="3" stroke="#000000" />
         <text x="65" y="-5" style="stroke:#000000">Z </text>
        <!--
            <line x1="0" y1="0" x2="2.2023305042121333" y2="0" stroke-width="3" />
            <text x="0" y="20" style="stroke:#000000">1  mm </text>
        -->
    </g>
</svg>
